solid OpenSCAD_Model
  facet normal 0 0 -1
    outer loop
      vertex -3.09375 -1.50293 0
      vertex -3 16 0
      vertex -3 -1.5 0
    endloop
  endfacet
  facet normal 0 0 -1
    outer loop
      vertex -3.18848 -1.51172 0
      vertex -3 16 0
      vertex -3.09375 -1.50293 0
    endloop
  endfacet
  facet normal 0 0 -1
    outer loop
      vertex -3.28125 -1.52637 0
      vertex -3 16 0
      vertex -3.18848 -1.51172 0
    endloop
  endfacet
  facet normal 0 0 -1
    outer loop
      vertex -3.37305 -1.54688 0
      vertex -3 16 0
      vertex -3.28125 -1.52637 0
    endloop
  endfacet
  facet normal 0 0 -1
    outer loop
      vertex -3.46387 -1.57324 0
      vertex -3 16 0
      vertex -3.37305 -1.54688 0
    endloop
  endfacet
  facet normal 0 0 -1
    outer loop
      vertex -3.55176 -1.60547 0
      vertex -3 16 0
      vertex -3.46387 -1.57324 0
    endloop
  endfacet
  facet normal 0 0 -1
    outer loop
      vertex -3.63867 -1.64258 0
      vertex -3 16 0
      vertex -3.55176 -1.60547 0
    endloop
  endfacet
  facet normal 0 0 -1
    outer loop
      vertex -3.72266 -1.68555 0
      vertex -3 16 0
      vertex -3.63867 -1.64258 0
    endloop
  endfacet
  facet normal 0 0 -1
    outer loop
      vertex -3.80371 -1.7334 0
      vertex -3 16 0
      vertex -3.72266 -1.68555 0
    endloop
  endfacet
  facet normal 0 0 -1
    outer loop
      vertex -3.88184 -1.78613 0
      vertex -3 16 0
      vertex -3.80371 -1.7334 0
    endloop
  endfacet
  facet normal 0 0 -1
    outer loop
      vertex -3.95605 -1.84375 0
      vertex -3 16 0
      vertex -3.88184 -1.78613 0
    endloop
  endfacet
  facet normal 0 0 -1
    outer loop
      vertex -5.82812 -3 0
      vertex -3.95605 -1.84375 0
      vertex -4.02637 -1.90625 0
    endloop
  endfacet
  facet normal 0 0 -1
    outer loop
      vertex -5.82812 -3 0
      vertex -4.02637 -1.90625 0
      vertex -4.09375 -1.97363 0
    endloop
  endfacet
  facet normal 0 0 -1
    outer loop
      vertex -5.82812 -3 0
      vertex -4.09375 -1.97363 0
      vertex -4.15625 -2.04395 0
    endloop
  endfacet
  facet normal 0 0 -1
    outer loop
      vertex -5.82812 -3 0
      vertex -4.15625 -2.04395 0
      vertex -4.21387 -2.11816 0
    endloop
  endfacet
  facet normal 0 0 -1
    outer loop
      vertex -5.82812 -3 0
      vertex -4.21387 -2.11816 0
      vertex -4.2666 -2.19629 0
    endloop
  endfacet
  facet normal 0 0 -1
    outer loop
      vertex -5.82812 -3 0
      vertex -4.2666 -2.19629 0
      vertex -4.31445 -2.27734 0
    endloop
  endfacet
  facet normal 0 0 -1
    outer loop
      vertex -5.82812 -3 0
      vertex -4.31445 -2.27734 0
      vertex -4.35742 -2.36133 0
    endloop
  endfacet
  facet normal 0 0 -1
    outer loop
      vertex -5.82812 -3 0
      vertex -4.35742 -2.36133 0
      vertex -4.39453 -2.44824 0
    endloop
  endfacet
  facet normal 0 0 -1
    outer loop
      vertex -5.82812 -3 0
      vertex -4.39453 -2.44824 0
      vertex -4.42676 -2.53613 0
    endloop
  endfacet
  facet normal 0 0 -1
    outer loop
      vertex -5.82812 -3 0
      vertex -4.42676 -2.53613 0
      vertex -4.45312 -2.62695 0
    endloop
  endfacet
  facet normal 0 0 -1
    outer loop
      vertex -5.82812 -3 0
      vertex -4.45312 -2.62695 0
      vertex -4.47363 -2.71875 0
    endloop
  endfacet
  facet normal 0 0 -1
    outer loop
      vertex -5.82812 -3 0
      vertex -4.47363 -2.71875 0
      vertex -4.48828 -2.81152 0
    endloop
  endfacet
  facet normal 0 0 -1
    outer loop
      vertex -5.82812 -3 0
      vertex -4.48828 -2.81152 0
      vertex -4.49707 -2.90625 0
    endloop
  endfacet
  facet normal -0 0 -1
    outer loop
      vertex -4.31445 -3.72266 0
      vertex -5.47852 -4.3623 0
      vertex -4.35742 -3.63867 0
    endloop
  endfacet
  facet normal 0 0 -1
    outer loop
      vertex -5.55957 -4.2041 0
      vertex -4.35742 -3.63867 0
      vertex -5.47852 -4.3623 0
    endloop
  endfacet
  facet normal -0 0 -1
    outer loop
      vertex -4.35742 -3.63867 0
      vertex -5.55957 -4.2041 0
      vertex -4.39453 -3.55176 0
    endloop
  endfacet
  facet normal 0 0 -1
    outer loop
      vertex -5.62988 -4.04102 0
      vertex -4.39453 -3.55176 0
      vertex -5.55957 -4.2041 0
    endloop
  endfacet
  facet normal -0 0 -1
    outer loop
      vertex -4.39453 -3.55176 0
      vertex -5.62988 -4.04102 0
      vertex -4.42676 -3.46387 0
    endloop
  endfacet
  facet normal 0 0 -1
    outer loop
      vertex -5.69043 -3.87402 0
      vertex -4.42676 -3.46387 0
      vertex -5.62988 -4.04102 0
    endloop
  endfacet
  facet normal -0 0 -1
    outer loop
      vertex -4.42676 -3.46387 0
      vertex -5.69043 -3.87402 0
      vertex -4.45312 -3.37305 0
    endloop
  endfacet
  facet normal 0 0 -1
    outer loop
      vertex -5.73926 -3.70312 0
      vertex -4.45312 -3.37305 0
      vertex -5.69043 -3.87402 0
    endloop
  endfacet
  facet normal -0 0 -1
    outer loop
      vertex -4.45312 -3.37305 0
      vertex -5.73926 -3.70312 0
      vertex -4.47363 -3.28125 0
    endloop
  endfacet
  facet normal 0 0 -1
    outer loop
      vertex -5.77832 -3.53027 0
      vertex -4.47363 -3.28125 0
      vertex -5.73926 -3.70312 0
    endloop
  endfacet
  facet normal -0 0 -1
    outer loop
      vertex -4.47363 -3.28125 0
      vertex -5.77832 -3.53027 0
      vertex -4.48828 -3.18848 0
    endloop
  endfacet
  facet normal 0 0 -1
    outer loop
      vertex -5.80566 -3.35449 0
      vertex -4.48828 -3.18848 0
      vertex -5.77832 -3.53027 0
    endloop
  endfacet
  facet normal -0 0 -1
    outer loop
      vertex -4.48828 -3.18848 0
      vertex -5.80566 -3.35449 0
      vertex -4.49707 -3.09375 0
    endloop
  endfacet
  facet normal 0 0 -1
    outer loop
      vertex -5.82324 -3.17773 0
      vertex -4.49707 -3.09375 0
      vertex -5.80566 -3.35449 0
    endloop
  endfacet
  facet normal -0 0 -1
    outer loop
      vertex -4.49707 -3.09375 0
      vertex -5.82324 -3.17773 0
      vertex -4.5 -3 0
    endloop
  endfacet
  facet normal 0 0 -1
    outer loop
      vertex -5.82812 -3 0
      vertex -4.5 -3 0
      vertex -5.82324 -3.17773 0
    endloop
  endfacet
  facet normal 0 0 -1
    outer loop
      vertex -4.5 -3 0
      vertex -5.82812 -3 0
      vertex -4.49707 -2.90625 0
    endloop
  endfacet
  facet normal -0 0 -1
    outer loop
      vertex -3.95605 -1.84375 0
      vertex -5.82812 -3 0
      vertex -3 16 0
    endloop
  endfacet
  facet normal 0 0 -1
    outer loop
      vertex 14 -3 0
      vertex -1.90625 -1.97363 0
      vertex 16.9336 12.7852 0
    endloop
  endfacet
  facet normal 0 0 -1
    outer loop
      vertex 16.0117 16.377 0
      vertex -1.50293 52.9062 0
      vertex -1.5 53 0
    endloop
  endfacet
  facet normal 0 0 -1
    outer loop
      vertex -1.97363 -1.90625 0
      vertex 16.9336 12.7852 0
      vertex -1.90625 -1.97363 0
    endloop
  endfacet
  facet normal 0 0 -1
    outer loop
      vertex 16.0117 16.377 0
      vertex -1.51172 52.8115 0
      vertex -1.50293 52.9062 0
    endloop
  endfacet
  facet normal -0 0 -1
    outer loop
      vertex 16.9336 12.7852 0
      vertex -1.97363 -1.90625 0
      vertex 16.7422 13.1094 0
    endloop
  endfacet
  facet normal 0 0 -1
    outer loop
      vertex -3 36 0
      vertex 16.0117 16.377 0
      vertex -3 16 0
    endloop
  endfacet
  facet normal 0 0 -1
    outer loop
      vertex -2.04395 -1.84375 0
      vertex 16.7422 13.1094 0
      vertex -1.97363 -1.90625 0
    endloop
  endfacet
  facet normal 0 -0 -1
    outer loop
      vertex -1.60547 52.4482 0
      vertex 16.0117 16.377 0
      vertex -3 36 0
    endloop
  endfacet
  facet normal 0 0 -1
    outer loop
      vertex -3 16 0
      vertex 16.7422 13.1094 0
      vertex -2.04395 -1.84375 0
    endloop
  endfacet
  facet normal 0 0 -1
    outer loop
      vertex 16.0117 16.377 0
      vertex -1.52637 52.7188 0
      vertex -1.51172 52.8115 0
    endloop
  endfacet
  facet normal 0 0 -1
    outer loop
      vertex 16.7422 13.1094 0
      vertex -3 16 0
      vertex 16.5713 13.4453 0
    endloop
  endfacet
  facet normal 0 0 -1
    outer loop
      vertex 16.0117 16.377 0
      vertex -1.54688 52.627 0
      vertex -1.52637 52.7188 0
    endloop
  endfacet
  facet normal 0 0 -1
    outer loop
      vertex 16.5713 13.4453 0
      vertex -3 16 0
      vertex 16.4209 13.791 0
    endloop
  endfacet
  facet normal 0 0 -1
    outer loop
      vertex 16.0117 16.377 0
      vertex -1.57324 52.5361 0
      vertex -1.54688 52.627 0
    endloop
  endfacet
  facet normal 0 0 -1
    outer loop
      vertex 16.4209 13.791 0
      vertex -3 16 0
      vertex 16.2939 14.1455 0
    endloop
  endfacet
  facet normal 0 0 -1
    outer loop
      vertex 16.0117 16.377 0
      vertex -1.60547 52.4482 0
      vertex -1.57324 52.5361 0
    endloop
  endfacet
  facet normal 0 0 -1
    outer loop
      vertex 16.2939 14.1455 0
      vertex -3 16 0
      vertex 16.1885 14.5078 0
    endloop
  endfacet
  facet normal 0 0 -1
    outer loop
      vertex -1.60547 52.4482 0
      vertex -3 36 0
      vertex -1.64258 52.3613 0
    endloop
  endfacet
  facet normal 0 0 -1
    outer loop
      vertex 16.1064 14.876 0
      vertex -3 16 0
      vertex 16.0469 15.248 0
    endloop
  endfacet
  facet normal 0 0 -1
    outer loop
      vertex -1.64258 52.3613 0
      vertex -3 36 0
      vertex -1.68555 52.2773 0
    endloop
  endfacet
  facet normal 0 0 -1
    outer loop
      vertex 16.0469 15.248 0
      vertex -3 16 0
      vertex 16.0117 15.623 0
    endloop
  endfacet
  facet normal 0 0 -1
    outer loop
      vertex -1.68555 52.2773 0
      vertex -3 36 0
      vertex -1.7334 52.1963 0
    endloop
  endfacet
  facet normal 0 0 -1
    outer loop
      vertex 16.0117 15.623 0
      vertex -3 16 0
      vertex 16 16 0
    endloop
  endfacet
  facet normal 0 0 -1
    outer loop
      vertex -1.7334 52.1963 0
      vertex -3 36 0
      vertex -1.78613 52.1182 0
    endloop
  endfacet
  facet normal 0 0 -1
    outer loop
      vertex 16 16 0
      vertex -3 16 0
      vertex 16.0117 16.377 0
    endloop
  endfacet
  facet normal 0 0 -1
    outer loop
      vertex -1.78613 52.1182 0
      vertex -3 36 0
      vertex -1.84375 52.0439 0
    endloop
  endfacet
  facet normal 0 0 -1
    outer loop
      vertex 16.1885 14.5078 0
      vertex -3 16 0
      vertex 16.1064 14.876 0
    endloop
  endfacet
  facet normal 0 0 -1
    outer loop
      vertex -1.84375 52.0439 0
      vertex -3 36 0
      vertex -1.90625 51.9736 0
    endloop
  endfacet
  facet normal 0 0 -1
    outer loop
      vertex -3 16 0
      vertex -2.04395 -1.84375 0
      vertex -2.11816 -1.78613 0
    endloop
  endfacet
  facet normal 0 0 -1
    outer loop
      vertex -1.90625 51.9736 0
      vertex -3 36 0
      vertex -1.97363 51.9062 0
    endloop
  endfacet
  facet normal 0 0 -1
    outer loop
      vertex -3 16 0
      vertex -2.11816 -1.78613 0
      vertex -2.19629 -1.7334 0
    endloop
  endfacet
  facet normal 0 0 -1
    outer loop
      vertex -1.97363 51.9062 0
      vertex -3 36 0
      vertex -2.04395 51.8438 0
    endloop
  endfacet
  facet normal 0 0 -1
    outer loop
      vertex -3 16 0
      vertex -2.19629 -1.7334 0
      vertex -2.27734 -1.68555 0
    endloop
  endfacet
  facet normal 0 0 -1
    outer loop
      vertex -2.04395 51.8438 0
      vertex -3 36 0
      vertex -2.11816 51.7861 0
    endloop
  endfacet
  facet normal 0 0 -1
    outer loop
      vertex -3 16 0
      vertex -2.27734 -1.68555 0
      vertex -2.36133 -1.64258 0
    endloop
  endfacet
  facet normal 0 0 -1
    outer loop
      vertex -2.11816 51.7861 0
      vertex -3 36 0
      vertex -2.19629 51.7334 0
    endloop
  endfacet
  facet normal 0 0 -1
    outer loop
      vertex -3 16 0
      vertex -2.36133 -1.64258 0
      vertex -2.44824 -1.60547 0
    endloop
  endfacet
  facet normal 0 0 -1
    outer loop
      vertex -2.19629 51.7334 0
      vertex -3 36 0
      vertex -2.27734 51.6855 0
    endloop
  endfacet
  facet normal 0 0 -1
    outer loop
      vertex -3 16 0
      vertex -2.44824 -1.60547 0
      vertex -2.53613 -1.57324 0
    endloop
  endfacet
  facet normal 0 0 -1
    outer loop
      vertex -2.27734 51.6855 0
      vertex -3 36 0
      vertex -2.36133 51.6426 0
    endloop
  endfacet
  facet normal 0 0 -1
    outer loop
      vertex -3 16 0
      vertex -2.53613 -1.57324 0
      vertex -2.62695 -1.54688 0
    endloop
  endfacet
  facet normal 0 0 -1
    outer loop
      vertex -2.36133 51.6426 0
      vertex -3 36 0
      vertex -2.44824 51.6055 0
    endloop
  endfacet
  facet normal 0 0 -1
    outer loop
      vertex -3 16 0
      vertex -2.62695 -1.54688 0
      vertex -2.71875 -1.52637 0
    endloop
  endfacet
  facet normal 0 0 -1
    outer loop
      vertex -2.44824 51.6055 0
      vertex -3 36 0
      vertex -2.53613 51.5732 0
    endloop
  endfacet
  facet normal 0 0 -1
    outer loop
      vertex -3 16 0
      vertex -2.71875 -1.52637 0
      vertex -2.81152 -1.51172 0
    endloop
  endfacet
  facet normal 0 0 -1
    outer loop
      vertex -2.53613 51.5732 0
      vertex -3 36 0
      vertex -2.62695 51.5469 0
    endloop
  endfacet
  facet normal 0 0 -1
    outer loop
      vertex -3 16 0
      vertex -2.81152 -1.51172 0
      vertex -2.90625 -1.50293 0
    endloop
  endfacet
  facet normal 0 0 -1
    outer loop
      vertex -2.62695 51.5469 0
      vertex -3 36 0
      vertex -2.71875 51.5264 0
    endloop
  endfacet
  facet normal 0 0 -1
    outer loop
      vertex -3 16 0
      vertex -2.90625 -1.50293 0
      vertex -3 -1.5 0
    endloop
  endfacet
  facet normal 0 0 -1
    outer loop
      vertex -2.71875 51.5264 0
      vertex -3 36 0
      vertex -2.81152 51.5117 0
    endloop
  endfacet
  facet normal 0 0 -1
    outer loop
      vertex -2.81152 51.5117 0
      vertex -3 36 0
      vertex -2.90625 51.5029 0
    endloop
  endfacet
  facet normal 0 0 -1
    outer loop
      vertex -3 36 0
      vertex -3 51.5 0
      vertex -2.90625 51.5029 0
    endloop
  endfacet
  facet normal 0 0 -1
    outer loop
      vertex -3 36 0
      vertex -3.09375 51.5029 0
      vertex -3 51.5 0
    endloop
  endfacet
  facet normal 0 0 -1
    outer loop
      vertex -3 36 0
      vertex -3.18848 51.5117 0
      vertex -3.09375 51.5029 0
    endloop
  endfacet
  facet normal 0 0 -1
    outer loop
      vertex -3 36 0
      vertex -3.28125 51.5264 0
      vertex -3.18848 51.5117 0
    endloop
  endfacet
  facet normal 0 0 -1
    outer loop
      vertex -3 36 0
      vertex -3.37305 51.5469 0
      vertex -3.28125 51.5264 0
    endloop
  endfacet
  facet normal 0 0 -1
    outer loop
      vertex -3 36 0
      vertex -3.46387 51.5732 0
      vertex -3.37305 51.5469 0
    endloop
  endfacet
  facet normal 0 0 -1
    outer loop
      vertex -3 36 0
      vertex -3.55176 51.6055 0
      vertex -3.46387 51.5732 0
    endloop
  endfacet
  facet normal 0 0 -1
    outer loop
      vertex -3 36 0
      vertex -3.63867 51.6426 0
      vertex -3.55176 51.6055 0
    endloop
  endfacet
  facet normal 0 0 -1
    outer loop
      vertex -3 36 0
      vertex -3.72266 51.6855 0
      vertex -3.63867 51.6426 0
    endloop
  endfacet
  facet normal 0 0 -1
    outer loop
      vertex -3 36 0
      vertex -3.80371 51.7334 0
      vertex -3.72266 51.6855 0
    endloop
  endfacet
  facet normal 0 0 -1
    outer loop
      vertex -3 36 0
      vertex -3.88184 51.7861 0
      vertex -3.80371 51.7334 0
    endloop
  endfacet
  facet normal 0 0 -1
    outer loop
      vertex -3 36 0
      vertex -3.95605 51.8438 0
      vertex -3.88184 51.7861 0
    endloop
  endfacet
  facet normal 0 0 -1
    outer loop
      vertex -5.82812 53 0
      vertex -3.95605 51.8438 0
      vertex -3 36 0
    endloop
  endfacet
  facet normal 0 0 -1
    outer loop
      vertex -3.95605 51.8438 0
      vertex -5.82812 53 0
      vertex -4.02637 51.9062 0
    endloop
  endfacet
  facet normal 0 0 -1
    outer loop
      vertex -4.02637 51.9062 0
      vertex -5.82812 53 0
      vertex -4.09375 51.9736 0
    endloop
  endfacet
  facet normal 0 0 -1
    outer loop
      vertex -4.09375 51.9736 0
      vertex -5.82812 53 0
      vertex -4.15625 52.0439 0
    endloop
  endfacet
  facet normal 0 0 -1
    outer loop
      vertex -4.15625 52.0439 0
      vertex -5.82812 53 0
      vertex -4.21387 52.1182 0
    endloop
  endfacet
  facet normal 0 0 -1
    outer loop
      vertex -4.21387 52.1182 0
      vertex -5.82812 53 0
      vertex -4.2666 52.1963 0
    endloop
  endfacet
  facet normal 0 0 -1
    outer loop
      vertex -4.2666 52.1963 0
      vertex -5.82812 53 0
      vertex -4.31445 52.2773 0
    endloop
  endfacet
  facet normal 0 0 -1
    outer loop
      vertex -4.31445 52.2773 0
      vertex -5.82812 53 0
      vertex -4.35742 52.3613 0
    endloop
  endfacet
  facet normal 0 0 -1
    outer loop
      vertex -4.35742 52.3613 0
      vertex -5.82812 53 0
      vertex -4.39453 52.4482 0
    endloop
  endfacet
  facet normal 0 0 -1
    outer loop
      vertex -4.39453 52.4482 0
      vertex -5.82812 53 0
      vertex -4.42676 52.5361 0
    endloop
  endfacet
  facet normal 0 0 -1
    outer loop
      vertex -4.42676 52.5361 0
      vertex -5.82812 53 0
      vertex -4.45312 52.627 0
    endloop
  endfacet
  facet normal 0 0 -1
    outer loop
      vertex -4.45312 52.627 0
      vertex -5.82812 53 0
      vertex -4.47363 52.7188 0
    endloop
  endfacet
  facet normal 0 0 -1
    outer loop
      vertex -4.47363 52.7188 0
      vertex -5.82812 53 0
      vertex -4.48828 52.8115 0
    endloop
  endfacet
  facet normal 0 0 -1
    outer loop
      vertex -3.88184 54.2139 0
      vertex -4.66211 55.2881 0
      vertex -4.51562 55.3877 0
    endloop
  endfacet
  facet normal 0 0 -1
    outer loop
      vertex -5.82812 53 0
      vertex -4.5 53 0
      vertex -4.49707 52.9062 0
    endloop
  endfacet
  facet normal 0 0 -1
    outer loop
      vertex -4.49707 53.0938 0
      vertex -4.80273 55.1797 0
      vertex -4.66211 55.2881 0
    endloop
  endfacet
  facet normal 0 0 -1
    outer loop
      vertex -4.48828 52.8115 0
      vertex -5.82812 53 0
      vertex -4.49707 52.9062 0
    endloop
  endfacet
  facet normal 0 0 -1
    outer loop
      vertex -4.5 53 0
      vertex -5.82812 53 0
      vertex -5.82324 53.1777 0
    endloop
  endfacet
  facet normal 0 0 -1
    outer loop
      vertex -4.49707 53.0938 0
      vertex -4.93652 55.0615 0
      vertex -4.80273 55.1797 0
    endloop
  endfacet
  facet normal 0 0 -1
    outer loop
      vertex -4.49707 53.0938 0
      vertex -5.06152 54.9365 0
      vertex -4.93652 55.0615 0
    endloop
  endfacet
  facet normal 0 0 -1
    outer loop
      vertex -4.49707 53.0938 0
      vertex -5.17969 54.8027 0
      vertex -5.06152 54.9365 0
    endloop
  endfacet
  facet normal 0 0 -1
    outer loop
      vertex -4.49707 53.0938 0
      vertex -5.28809 54.6621 0
      vertex -5.17969 54.8027 0
    endloop
  endfacet
  facet normal 0 0 -1
    outer loop
      vertex -4.49707 53.0938 0
      vertex -5.3877 54.5156 0
      vertex -5.28809 54.6621 0
    endloop
  endfacet
  facet normal 0 0 -1
    outer loop
      vertex -4.49707 53.0938 0
      vertex -5.47852 54.3623 0
      vertex -5.3877 54.5156 0
    endloop
  endfacet
  facet normal 0 0 -1
    outer loop
      vertex -4.49707 53.0938 0
      vertex -5.55957 54.2041 0
      vertex -5.47852 54.3623 0
    endloop
  endfacet
  facet normal 0 0 -1
    outer loop
      vertex -4.49707 53.0938 0
      vertex -5.62988 54.041 0
      vertex -5.55957 54.2041 0
    endloop
  endfacet
  facet normal 0 0 -1
    outer loop
      vertex -4.49707 53.0938 0
      vertex -5.69043 53.874 0
      vertex -5.62988 54.041 0
    endloop
  endfacet
  facet normal 0 0 -1
    outer loop
      vertex -4.49707 53.0938 0
      vertex -5.73926 53.7031 0
      vertex -5.69043 53.874 0
    endloop
  endfacet
  facet normal 0 0 -1
    outer loop
      vertex -4.49707 53.0938 0
      vertex -5.77832 53.5303 0
      vertex -5.73926 53.7031 0
    endloop
  endfacet
  facet normal 0 0 -1
    outer loop
      vertex -4.49707 53.0938 0
      vertex -5.80566 53.3545 0
      vertex -5.77832 53.5303 0
    endloop
  endfacet
  facet normal 0 0 -1
    outer loop
      vertex -4.49707 53.0938 0
      vertex -5.82324 53.1777 0
      vertex -5.80566 53.3545 0
    endloop
  endfacet
  facet normal -0 0 -1
    outer loop
      vertex 14 -3 0
      vertex -1.50293 -3.09375 0
      vertex -1.5 -3 0
    endloop
  endfacet
  facet normal 0 0 -1
    outer loop
      vertex 14 -3 0
      vertex -1.51172 -3.18848 0
      vertex -1.50293 -3.09375 0
    endloop
  endfacet
  facet normal 0 0 -1
    outer loop
      vertex 14 -3 0
      vertex -1.52637 -3.28125 0
      vertex -1.51172 -3.18848 0
    endloop
  endfacet
  facet normal 0 0 -1
    outer loop
      vertex 14 -3 0
      vertex -1.54688 -3.37305 0
      vertex -1.52637 -3.28125 0
    endloop
  endfacet
  facet normal 0 0 -1
    outer loop
      vertex 14 -3 0
      vertex -1.57324 -3.46387 0
      vertex -1.54688 -3.37305 0
    endloop
  endfacet
  facet normal 0 0 -1
    outer loop
      vertex 14 -3 0
      vertex -1.60547 -3.55176 0
      vertex -1.57324 -3.46387 0
    endloop
  endfacet
  facet normal 0 0 -1
    outer loop
      vertex 14 -3 0
      vertex -1.64258 -3.63867 0
      vertex -1.60547 -3.55176 0
    endloop
  endfacet
  facet normal 0 0 -1
    outer loop
      vertex 14 -3 0
      vertex -1.68555 -3.72266 0
      vertex -1.64258 -3.63867 0
    endloop
  endfacet
  facet normal 0 0 -1
    outer loop
      vertex 14 -3 0
      vertex -1.7334 -3.80371 0
      vertex -1.68555 -3.72266 0
    endloop
  endfacet
  facet normal 0 0 -1
    outer loop
      vertex 14 -3 0
      vertex -1.78613 -3.88184 0
      vertex -1.7334 -3.80371 0
    endloop
  endfacet
  facet normal 0 0 -1
    outer loop
      vertex 14 -3 0
      vertex -1.84375 -3.95605 0
      vertex -1.78613 -3.88184 0
    endloop
  endfacet
  facet normal 0 0 -1
    outer loop
      vertex -3 -5.82812 0
      vertex -1.84375 -3.95605 0
      vertex 14 -3 0
    endloop
  endfacet
  facet normal 0 0 -1
    outer loop
      vertex -1.84375 -3.95605 0
      vertex -3 -5.82812 0
      vertex -1.90625 -4.02637 0
    endloop
  endfacet
  facet normal 0 0 -1
    outer loop
      vertex -1.90625 -4.02637 0
      vertex -3 -5.82812 0
      vertex -1.97363 -4.09375 0
    endloop
  endfacet
  facet normal 0 0 -1
    outer loop
      vertex -1.97363 -4.09375 0
      vertex -3 -5.82812 0
      vertex -2.04395 -4.15625 0
    endloop
  endfacet
  facet normal 0 0 -1
    outer loop
      vertex -2.04395 -4.15625 0
      vertex -3 -5.82812 0
      vertex -2.11816 -4.21387 0
    endloop
  endfacet
  facet normal 0 0 -1
    outer loop
      vertex -2.11816 -4.21387 0
      vertex -3 -5.82812 0
      vertex -2.19629 -4.2666 0
    endloop
  endfacet
  facet normal 0 0 -1
    outer loop
      vertex -2.19629 -4.2666 0
      vertex -3 -5.82812 0
      vertex -2.27734 -4.31445 0
    endloop
  endfacet
  facet normal 0 0 -1
    outer loop
      vertex -2.27734 -4.31445 0
      vertex -3 -5.82812 0
      vertex -2.36133 -4.35742 0
    endloop
  endfacet
  facet normal 0 0 -1
    outer loop
      vertex -2.36133 -4.35742 0
      vertex -3 -5.82812 0
      vertex -2.44824 -4.39453 0
    endloop
  endfacet
  facet normal 0 0 -1
    outer loop
      vertex -2.44824 -4.39453 0
      vertex -3 -5.82812 0
      vertex -2.53613 -4.42676 0
    endloop
  endfacet
  facet normal 0 0 -1
    outer loop
      vertex -2.53613 -4.42676 0
      vertex -3 -5.82812 0
      vertex -2.62695 -4.45312 0
    endloop
  endfacet
  facet normal 0 0 -1
    outer loop
      vertex -2.62695 -4.45312 0
      vertex -3 -5.82812 0
      vertex -2.71875 -4.47363 0
    endloop
  endfacet
  facet normal 0 0 -1
    outer loop
      vertex -2.71875 -4.47363 0
      vertex -3 -5.82812 0
      vertex -2.81152 -4.48828 0
    endloop
  endfacet
  facet normal 0 0 -1
    outer loop
      vertex -2.81152 -4.48828 0
      vertex -3 -5.82812 0
      vertex -2.90625 -4.49707 0
    endloop
  endfacet
  facet normal 0 0 -1
    outer loop
      vertex -3 -5.82812 0
      vertex -3 -4.5 0
      vertex -2.90625 -4.49707 0
    endloop
  endfacet
  facet normal 0 0 -1
    outer loop
      vertex -3 -5.82812 0
      vertex -3.09375 -4.49707 0
      vertex -3 -4.5 0
    endloop
  endfacet
  facet normal 0 0 -1
    outer loop
      vertex -3.17773 -5.82324 0
      vertex -3.09375 -4.49707 0
      vertex -3 -5.82812 0
    endloop
  endfacet
  facet normal 0 0 -1
    outer loop
      vertex -3.17773 -5.82324 0
      vertex -3.18848 -4.48828 0
      vertex -3.09375 -4.49707 0
    endloop
  endfacet
  facet normal 0 0 -1
    outer loop
      vertex -3.35449 -5.80566 0
      vertex -3.18848 -4.48828 0
      vertex -3.17773 -5.82324 0
    endloop
  endfacet
  facet normal -0 0 -1
    outer loop
      vertex -3.18848 -4.48828 0
      vertex -3.35449 -5.80566 0
      vertex -3.28125 -4.47363 0
    endloop
  endfacet
  facet normal 0 0 -1
    outer loop
      vertex -3.53027 -5.77832 0
      vertex -3.28125 -4.47363 0
      vertex -3.35449 -5.80566 0
    endloop
  endfacet
  facet normal -0 0 -1
    outer loop
      vertex -3.28125 -4.47363 0
      vertex -3.53027 -5.77832 0
      vertex -3.37305 -4.45312 0
    endloop
  endfacet
  facet normal 0 0 -1
    outer loop
      vertex -3.70312 -5.73926 0
      vertex -3.37305 -4.45312 0
      vertex -3.53027 -5.77832 0
    endloop
  endfacet
  facet normal -0 0 -1
    outer loop
      vertex -3.37305 -4.45312 0
      vertex -3.70312 -5.73926 0
      vertex -3.46387 -4.42676 0
    endloop
  endfacet
  facet normal 0 0 -1
    outer loop
      vertex -3.87402 -5.69043 0
      vertex -3.46387 -4.42676 0
      vertex -3.70312 -5.73926 0
    endloop
  endfacet
  facet normal -0 0 -1
    outer loop
      vertex -3.46387 -4.42676 0
      vertex -3.87402 -5.69043 0
      vertex -3.55176 -4.39453 0
    endloop
  endfacet
  facet normal 0 0 -1
    outer loop
      vertex -4.04102 -5.62988 0
      vertex -3.55176 -4.39453 0
      vertex -3.87402 -5.69043 0
    endloop
  endfacet
  facet normal -0 0 -1
    outer loop
      vertex -3.55176 -4.39453 0
      vertex -4.04102 -5.62988 0
      vertex -3.63867 -4.35742 0
    endloop
  endfacet
  facet normal 0 0 -1
    outer loop
      vertex -4.2041 -5.55957 0
      vertex -3.63867 -4.35742 0
      vertex -4.04102 -5.62988 0
    endloop
  endfacet
  facet normal -0 0 -1
    outer loop
      vertex -3.63867 -4.35742 0
      vertex -4.2041 -5.55957 0
      vertex -3.72266 -4.31445 0
    endloop
  endfacet
  facet normal 0 0 -1
    outer loop
      vertex -4.3623 -5.47852 0
      vertex -3.72266 -4.31445 0
      vertex -4.2041 -5.55957 0
    endloop
  endfacet
  facet normal -0 0 -1
    outer loop
      vertex -3.72266 -4.31445 0
      vertex -4.3623 -5.47852 0
      vertex -3.80371 -4.2666 0
    endloop
  endfacet
  facet normal 0 0 -1
    outer loop
      vertex -4.51562 -5.3877 0
      vertex -3.80371 -4.2666 0
      vertex -4.3623 -5.47852 0
    endloop
  endfacet
  facet normal -0 0 -1
    outer loop
      vertex -3.80371 -4.2666 0
      vertex -4.51562 -5.3877 0
      vertex -3.88184 -4.21387 0
    endloop
  endfacet
  facet normal 0 0 -1
    outer loop
      vertex -4.66211 -5.28809 0
      vertex -3.88184 -4.21387 0
      vertex -4.51562 -5.3877 0
    endloop
  endfacet
  facet normal -0 0 -1
    outer loop
      vertex -3.88184 -4.21387 0
      vertex -4.66211 -5.28809 0
      vertex -3.95605 -4.15625 0
    endloop
  endfacet
  facet normal 0 0 -1
    outer loop
      vertex -4.80273 -5.17969 0
      vertex -3.95605 -4.15625 0
      vertex -4.66211 -5.28809 0
    endloop
  endfacet
  facet normal -0 0 -1
    outer loop
      vertex -3.95605 -4.15625 0
      vertex -4.80273 -5.17969 0
      vertex -4.02637 -4.09375 0
    endloop
  endfacet
  facet normal 0 0 -1
    outer loop
      vertex -4.93652 -5.06152 0
      vertex -4.02637 -4.09375 0
      vertex -4.80273 -5.17969 0
    endloop
  endfacet
  facet normal -0 0 -1
    outer loop
      vertex -4.02637 -4.09375 0
      vertex -4.93652 -5.06152 0
      vertex -4.09375 -4.02637 0
    endloop
  endfacet
  facet normal 0 0 -1
    outer loop
      vertex -5.06152 -4.93652 0
      vertex -4.09375 -4.02637 0
      vertex -4.93652 -5.06152 0
    endloop
  endfacet
  facet normal -0 0 -1
    outer loop
      vertex -4.09375 -4.02637 0
      vertex -5.06152 -4.93652 0
      vertex -4.15625 -3.95605 0
    endloop
  endfacet
  facet normal 0 0 -1
    outer loop
      vertex -5.17969 -4.80273 0
      vertex -4.15625 -3.95605 0
      vertex -5.06152 -4.93652 0
    endloop
  endfacet
  facet normal -0 0 -1
    outer loop
      vertex -4.15625 -3.95605 0
      vertex -5.17969 -4.80273 0
      vertex -4.21387 -3.88184 0
    endloop
  endfacet
  facet normal 0 0 -1
    outer loop
      vertex -5.28809 -4.66211 0
      vertex -4.21387 -3.88184 0
      vertex -5.17969 -4.80273 0
    endloop
  endfacet
  facet normal -0 0 -1
    outer loop
      vertex -4.21387 -3.88184 0
      vertex -5.28809 -4.66211 0
      vertex -4.2666 -3.80371 0
    endloop
  endfacet
  facet normal 0 0 -1
    outer loop
      vertex -5.3877 -4.51562 0
      vertex -4.2666 -3.80371 0
      vertex -5.28809 -4.66211 0
    endloop
  endfacet
  facet normal 0 0 -1
    outer loop
      vertex -5.47852 -4.3623 0
      vertex -4.31445 -3.72266 0
      vertex -5.3877 -4.51562 0
    endloop
  endfacet
  facet normal -0 0 -1
    outer loop
      vertex -4.2666 -3.80371 0
      vertex -5.3877 -4.51562 0
      vertex -4.31445 -3.72266 0
    endloop
  endfacet
  facet normal 0 0 -1
    outer loop
      vertex 47.5029 -2.90625 0
      vertex 27.9883 15.623 0
      vertex 28 16 0
    endloop
  endfacet
  facet normal 0 0 -1
    outer loop
      vertex 47.5029 -2.90625 0
      vertex 27.9531 15.248 0
      vertex 27.9883 15.623 0
    endloop
  endfacet
  facet normal 0 0 -1
    outer loop
      vertex 47.5029 -2.90625 0
      vertex 27.8936 14.876 0
      vertex 27.9531 15.248 0
    endloop
  endfacet
  facet normal 0 0 -1
    outer loop
      vertex 47.5029 -2.90625 0
      vertex 27.8115 14.5078 0
      vertex 27.8936 14.876 0
    endloop
  endfacet
  facet normal 0 0 -1
    outer loop
      vertex 47.5029 -2.90625 0
      vertex 27.7061 14.1455 0
      vertex 27.8115 14.5078 0
    endloop
  endfacet
  facet normal 0 0 -1
    outer loop
      vertex 47.5029 -2.90625 0
      vertex 27.5791 13.791 0
      vertex 27.7061 14.1455 0
    endloop
  endfacet
  facet normal 0 0 -1
    outer loop
      vertex 47.5029 -2.90625 0
      vertex 27.4287 13.4453 0
      vertex 27.5791 13.791 0
    endloop
  endfacet
  facet normal 0 0 -1
    outer loop
      vertex 47.5029 -2.90625 0
      vertex 27.2578 13.1094 0
      vertex 27.4287 13.4453 0
    endloop
  endfacet
  facet normal 0 0 -1
    outer loop
      vertex 30 -3 0
      vertex 27.0664 12.7852 0
      vertex 27.2578 13.1094 0
    endloop
  endfacet
  facet normal 0 0 -1
    outer loop
      vertex 30 -3 0
      vertex 26.8545 12.4736 0
      vertex 27.0664 12.7852 0
    endloop
  endfacet
  facet normal 0 0 -1
    outer loop
      vertex 30 -3 0
      vertex 26.623 12.1758 0
      vertex 26.8545 12.4736 0
    endloop
  endfacet
  facet normal 0 0 -1
    outer loop
      vertex 30 -3 0
      vertex 26.374 11.8926 0
      vertex 26.623 12.1758 0
    endloop
  endfacet
  facet normal 0 0 -1
    outer loop
      vertex 30 -3 0
      vertex 26.1074 11.626 0
      vertex 26.374 11.8926 0
    endloop
  endfacet
  facet normal 0 0 -1
    outer loop
      vertex 30 -3 0
      vertex 25.8242 11.377 0
      vertex 26.1074 11.626 0
    endloop
  endfacet
  facet normal 0 0 -1
    outer loop
      vertex 30 -3 0
      vertex 25.5264 11.1455 0
      vertex 25.8242 11.377 0
    endloop
  endfacet
  facet normal 0 0 -1
    outer loop
      vertex 30 -3 0
      vertex 25.2148 10.9336 0
      vertex 25.5264 11.1455 0
    endloop
  endfacet
  facet normal 0 0 -1
    outer loop
      vertex 30 -3 0
      vertex 24.8906 10.7422 0
      vertex 25.2148 10.9336 0
    endloop
  endfacet
  facet normal 0 0 -1
    outer loop
      vertex 30 -3 0
      vertex 24.5547 10.5713 0
      vertex 24.8906 10.7422 0
    endloop
  endfacet
  facet normal 0 0 -1
    outer loop
      vertex 30 -3 0
      vertex 24.209 10.4209 0
      vertex 24.5547 10.5713 0
    endloop
  endfacet
  facet normal 0 0 -1
    outer loop
      vertex 30 -3 0
      vertex 23.8545 10.2939 0
      vertex 24.209 10.4209 0
    endloop
  endfacet
  facet normal 0 0 -1
    outer loop
      vertex 30 -3 0
      vertex 23.4922 10.1885 0
      vertex 23.8545 10.2939 0
    endloop
  endfacet
  facet normal 0 0 -1
    outer loop
      vertex 30 -3 0
      vertex 23.124 10.1064 0
      vertex 23.4922 10.1885 0
    endloop
  endfacet
  facet normal 0 0 -1
    outer loop
      vertex 30 -3 0
      vertex 22.752 10.0469 0
      vertex 23.124 10.1064 0
    endloop
  endfacet
  facet normal 0 0 -1
    outer loop
      vertex 30 -3 0
      vertex 22.377 10.0117 0
      vertex 22.752 10.0469 0
    endloop
  endfacet
  facet normal 0 0 -1
    outer loop
      vertex 30 -3 0
      vertex 22 10 0
      vertex 22.377 10.0117 0
    endloop
  endfacet
  facet normal 0 0 -1
    outer loop
      vertex 14 -3 0
      vertex 22 10 0
      vertex 30 -3 0
    endloop
  endfacet
  facet normal -0 0 -1
    outer loop
      vertex 22 10 0
      vertex 14 -3 0
      vertex 21.623 10.0117 0
    endloop
  endfacet
  facet normal -0 0 -1
    outer loop
      vertex 21.623 10.0117 0
      vertex 14 -3 0
      vertex 21.248 10.0469 0
    endloop
  endfacet
  facet normal -0 0 -1
    outer loop
      vertex 21.248 10.0469 0
      vertex 14 -3 0
      vertex 20.876 10.1064 0
    endloop
  endfacet
  facet normal -0 0 -1
    outer loop
      vertex 20.876 10.1064 0
      vertex 14 -3 0
      vertex 20.5078 10.1885 0
    endloop
  endfacet
  facet normal -0 0 -1
    outer loop
      vertex 20.5078 10.1885 0
      vertex 14 -3 0
      vertex 20.1455 10.2939 0
    endloop
  endfacet
  facet normal -0 0 -1
    outer loop
      vertex 20.1455 10.2939 0
      vertex 14 -3 0
      vertex 19.791 10.4209 0
    endloop
  endfacet
  facet normal -0 0 -1
    outer loop
      vertex 19.791 10.4209 0
      vertex 14 -3 0
      vertex 19.4453 10.5713 0
    endloop
  endfacet
  facet normal -0 0 -1
    outer loop
      vertex 19.4453 10.5713 0
      vertex 14 -3 0
      vertex 19.1094 10.7422 0
    endloop
  endfacet
  facet normal -0 0 -1
    outer loop
      vertex 19.1094 10.7422 0
      vertex 14 -3 0
      vertex 18.7852 10.9336 0
    endloop
  endfacet
  facet normal -0 0 -1
    outer loop
      vertex 18.7852 10.9336 0
      vertex 14 -3 0
      vertex 18.4736 11.1455 0
    endloop
  endfacet
  facet normal -0 0 -1
    outer loop
      vertex 18.4736 11.1455 0
      vertex 14 -3 0
      vertex 18.1758 11.377 0
    endloop
  endfacet
  facet normal -0 0 -1
    outer loop
      vertex 18.1758 11.377 0
      vertex 14 -3 0
      vertex 17.8926 11.626 0
    endloop
  endfacet
  facet normal -0 0 -1
    outer loop
      vertex 17.8926 11.626 0
      vertex 14 -3 0
      vertex 17.626 11.8926 0
    endloop
  endfacet
  facet normal -0 0 -1
    outer loop
      vertex 17.626 11.8926 0
      vertex 14 -3 0
      vertex 17.377 12.1758 0
    endloop
  endfacet
  facet normal 0 0 -1
    outer loop
      vertex 14 -3 0
      vertex 17.1455 12.4736 0
      vertex 17.377 12.1758 0
    endloop
  endfacet
  facet normal 0 0 -1
    outer loop
      vertex 14 -3 0
      vertex 16.9336 12.7852 0
      vertex 17.1455 12.4736 0
    endloop
  endfacet
  facet normal 0 0 -1
    outer loop
      vertex -1.52637 -2.71875 0
      vertex 14 -3 0
      vertex -1.51172 -2.81152 0
    endloop
  endfacet
  facet normal 0 0 -1
    outer loop
      vertex -1.50293 -2.90625 0
      vertex 14 -3 0
      vertex -1.5 -3 0
    endloop
  endfacet
  facet normal 0 0 -1
    outer loop
      vertex -1.51172 -2.81152 0
      vertex 14 -3 0
      vertex -1.50293 -2.90625 0
    endloop
  endfacet
  facet normal 0 0 -1
    outer loop
      vertex -1.54688 -2.62695 0
      vertex 14 -3 0
      vertex -1.52637 -2.71875 0
    endloop
  endfacet
  facet normal 0 0 -1
    outer loop
      vertex -1.57324 -2.53613 0
      vertex 14 -3 0
      vertex -1.54688 -2.62695 0
    endloop
  endfacet
  facet normal 0 0 -1
    outer loop
      vertex -1.60547 -2.44824 0
      vertex 14 -3 0
      vertex -1.57324 -2.53613 0
    endloop
  endfacet
  facet normal 0 0 -1
    outer loop
      vertex -1.64258 -2.36133 0
      vertex 14 -3 0
      vertex -1.60547 -2.44824 0
    endloop
  endfacet
  facet normal 0 0 -1
    outer loop
      vertex -1.68555 -2.27734 0
      vertex 14 -3 0
      vertex -1.64258 -2.36133 0
    endloop
  endfacet
  facet normal 0 0 -1
    outer loop
      vertex -1.7334 -2.19629 0
      vertex 14 -3 0
      vertex -1.68555 -2.27734 0
    endloop
  endfacet
  facet normal 0 0 -1
    outer loop
      vertex -1.84375 -2.04395 0
      vertex 14 -3 0
      vertex -1.78613 -2.11816 0
    endloop
  endfacet
  facet normal 0 0 -1
    outer loop
      vertex -1.90625 -1.97363 0
      vertex 14 -3 0
      vertex -1.84375 -2.04395 0
    endloop
  endfacet
  facet normal 0 0 -1
    outer loop
      vertex 16.0117 16.377 0
      vertex -1.5 53 0
      vertex 16 53 0
    endloop
  endfacet
  facet normal 0 0 -1
    outer loop
      vertex -1.50293 53.0938 0
      vertex 16 53 0
      vertex -1.5 53 0
    endloop
  endfacet
  facet normal 0 0 -1
    outer loop
      vertex -1.51172 53.1885 0
      vertex 16 53 0
      vertex -1.50293 53.0938 0
    endloop
  endfacet
  facet normal 0 0 -1
    outer loop
      vertex -1.52637 53.2812 0
      vertex 16 53 0
      vertex -1.51172 53.1885 0
    endloop
  endfacet
  facet normal 0 0 -1
    outer loop
      vertex -1.54688 53.373 0
      vertex 16 53 0
      vertex -1.52637 53.2812 0
    endloop
  endfacet
  facet normal 0 0 -1
    outer loop
      vertex -1.57324 53.4639 0
      vertex 16 53 0
      vertex -1.54688 53.373 0
    endloop
  endfacet
  facet normal 0 0 -1
    outer loop
      vertex -1.60547 53.5518 0
      vertex 16 53 0
      vertex -1.57324 53.4639 0
    endloop
  endfacet
  facet normal 0 0 -1
    outer loop
      vertex -1.64258 53.6387 0
      vertex 16 53 0
      vertex -1.60547 53.5518 0
    endloop
  endfacet
  facet normal 0 0 -1
    outer loop
      vertex -1.68555 53.7227 0
      vertex 16 53 0
      vertex -1.64258 53.6387 0
    endloop
  endfacet
  facet normal 0 0 -1
    outer loop
      vertex -1.7334 53.8037 0
      vertex 16 53 0
      vertex -1.68555 53.7227 0
    endloop
  endfacet
  facet normal 0 0 -1
    outer loop
      vertex -1.78613 53.8818 0
      vertex 16 53 0
      vertex -1.7334 53.8037 0
    endloop
  endfacet
  facet normal 0 0 -1
    outer loop
      vertex -1.84375 53.9561 0
      vertex 16 53 0
      vertex -1.78613 53.8818 0
    endloop
  endfacet
  facet normal 0 0 -1
    outer loop
      vertex -3 55.8281 0
      vertex -1.84375 53.9561 0
      vertex -1.90625 54.0264 0
    endloop
  endfacet
  facet normal 0 0 -1
    outer loop
      vertex -3 55.8281 0
      vertex -1.90625 54.0264 0
      vertex -1.97363 54.0938 0
    endloop
  endfacet
  facet normal 0 0 -1
    outer loop
      vertex -3 55.8281 0
      vertex -1.97363 54.0938 0
      vertex -2.04395 54.1562 0
    endloop
  endfacet
  facet normal 0 0 -1
    outer loop
      vertex -3 55.8281 0
      vertex -2.04395 54.1562 0
      vertex -2.11816 54.2139 0
    endloop
  endfacet
  facet normal 0 0 -1
    outer loop
      vertex -3 55.8281 0
      vertex -2.11816 54.2139 0
      vertex -2.19629 54.2666 0
    endloop
  endfacet
  facet normal 0 0 -1
    outer loop
      vertex -3 55.8281 0
      vertex -2.19629 54.2666 0
      vertex -2.27734 54.3145 0
    endloop
  endfacet
  facet normal 0 0 -1
    outer loop
      vertex -3 55.8281 0
      vertex -2.27734 54.3145 0
      vertex -2.36133 54.3574 0
    endloop
  endfacet
  facet normal 0 0 -1
    outer loop
      vertex -3 55.8281 0
      vertex -2.36133 54.3574 0
      vertex -2.44824 54.3945 0
    endloop
  endfacet
  facet normal 0 0 -1
    outer loop
      vertex -3 55.8281 0
      vertex -2.44824 54.3945 0
      vertex -2.53613 54.4268 0
    endloop
  endfacet
  facet normal 0 0 -1
    outer loop
      vertex -3 55.8281 0
      vertex -2.53613 54.4268 0
      vertex -2.62695 54.4531 0
    endloop
  endfacet
  facet normal 0 0 -1
    outer loop
      vertex -3 55.8281 0
      vertex -2.62695 54.4531 0
      vertex -2.71875 54.4736 0
    endloop
  endfacet
  facet normal 0 0 -1
    outer loop
      vertex -3 55.8281 0
      vertex -2.71875 54.4736 0
      vertex -2.81152 54.4883 0
    endloop
  endfacet
  facet normal 0 0 -1
    outer loop
      vertex -3 55.8281 0
      vertex -2.81152 54.4883 0
      vertex -2.90625 54.4971 0
    endloop
  endfacet
  facet normal 0 0 -1
    outer loop
      vertex -1.84375 53.9561 0
      vertex -3 55.8281 0
      vertex 16 53 0
    endloop
  endfacet
  facet normal 0 0 -1
    outer loop
      vertex -3 54.5 0
      vertex -3 55.8281 0
      vertex -2.90625 54.4971 0
    endloop
  endfacet
  facet normal 0 0 -1
    outer loop
      vertex -3.09375 54.4971 0
      vertex -3 55.8281 0
      vertex -3 54.5 0
    endloop
  endfacet
  facet normal 0 0 -1
    outer loop
      vertex -3.09375 54.4971 0
      vertex -3.17773 55.8232 0
      vertex -3 55.8281 0
    endloop
  endfacet
  facet normal 0 0 -1
    outer loop
      vertex -3.18848 54.4883 0
      vertex -3.17773 55.8232 0
      vertex -3.09375 54.4971 0
    endloop
  endfacet
  facet normal 0 0 -1
    outer loop
      vertex -3.35449 55.8057 0
      vertex -3.18848 54.4883 0
      vertex -3.28125 54.4736 0
    endloop
  endfacet
  facet normal 0 0 -1
    outer loop
      vertex -3.18848 54.4883 0
      vertex -3.35449 55.8057 0
      vertex -3.17773 55.8232 0
    endloop
  endfacet
  facet normal 0 0 -1
    outer loop
      vertex -3.53027 55.7783 0
      vertex -3.28125 54.4736 0
      vertex -3.37305 54.4531 0
    endloop
  endfacet
  facet normal 0 0 -1
    outer loop
      vertex -3.70312 55.7393 0
      vertex -3.37305 54.4531 0
      vertex -3.46387 54.4268 0
    endloop
  endfacet
  facet normal 0 0 -1
    outer loop
      vertex -3.28125 54.4736 0
      vertex -3.53027 55.7783 0
      vertex -3.35449 55.8057 0
    endloop
  endfacet
  facet normal 0 0 -1
    outer loop
      vertex -3.87402 55.6904 0
      vertex -3.46387 54.4268 0
      vertex -3.55176 54.3945 0
    endloop
  endfacet
  facet normal 0 0 -1
    outer loop
      vertex -4.04102 55.6299 0
      vertex -3.55176 54.3945 0
      vertex -3.63867 54.3574 0
    endloop
  endfacet
  facet normal 0 0 -1
    outer loop
      vertex -3.37305 54.4531 0
      vertex -3.70312 55.7393 0
      vertex -3.53027 55.7783 0
    endloop
  endfacet
  facet normal 0 0 -1
    outer loop
      vertex -4.2041 55.5596 0
      vertex -3.63867 54.3574 0
      vertex -3.72266 54.3145 0
    endloop
  endfacet
  facet normal 0 0 -1
    outer loop
      vertex -4.3623 55.4785 0
      vertex -3.72266 54.3145 0
      vertex -3.80371 54.2666 0
    endloop
  endfacet
  facet normal 0 0 -1
    outer loop
      vertex -3.46387 54.4268 0
      vertex -3.87402 55.6904 0
      vertex -3.70312 55.7393 0
    endloop
  endfacet
  facet normal 0 0 -1
    outer loop
      vertex -4.51562 55.3877 0
      vertex -3.80371 54.2666 0
      vertex -3.88184 54.2139 0
    endloop
  endfacet
  facet normal 0 0 -1
    outer loop
      vertex -4.66211 55.2881 0
      vertex -3.88184 54.2139 0
      vertex -3.95605 54.1562 0
    endloop
  endfacet
  facet normal 0 0 -1
    outer loop
      vertex -4.66211 55.2881 0
      vertex -3.95605 54.1562 0
      vertex -4.02637 54.0938 0
    endloop
  endfacet
  facet normal 0 0 -1
    outer loop
      vertex -3.55176 54.3945 0
      vertex -4.04102 55.6299 0
      vertex -3.87402 55.6904 0
    endloop
  endfacet
  facet normal 0 0 -1
    outer loop
      vertex -4.66211 55.2881 0
      vertex -4.02637 54.0938 0
      vertex -4.09375 54.0264 0
    endloop
  endfacet
  facet normal 0 0 -1
    outer loop
      vertex -4.66211 55.2881 0
      vertex -4.09375 54.0264 0
      vertex -4.15625 53.9561 0
    endloop
  endfacet
  facet normal 0 0 -1
    outer loop
      vertex -3.63867 54.3574 0
      vertex -4.2041 55.5596 0
      vertex -4.04102 55.6299 0
    endloop
  endfacet
  facet normal 0 0 -1
    outer loop
      vertex -4.66211 55.2881 0
      vertex -4.15625 53.9561 0
      vertex -4.21387 53.8818 0
    endloop
  endfacet
  facet normal 0 0 -1
    outer loop
      vertex -4.66211 55.2881 0
      vertex -4.21387 53.8818 0
      vertex -4.2666 53.8037 0
    endloop
  endfacet
  facet normal 0 0 -1
    outer loop
      vertex -4.66211 55.2881 0
      vertex -4.2666 53.8037 0
      vertex -4.31445 53.7227 0
    endloop
  endfacet
  facet normal 0 0 -1
    outer loop
      vertex -4.66211 55.2881 0
      vertex -4.31445 53.7227 0
      vertex -4.35742 53.6387 0
    endloop
  endfacet
  facet normal 0 0 -1
    outer loop
      vertex -3.72266 54.3145 0
      vertex -4.3623 55.4785 0
      vertex -4.2041 55.5596 0
    endloop
  endfacet
  facet normal 0 0 -1
    outer loop
      vertex -4.66211 55.2881 0
      vertex -4.35742 53.6387 0
      vertex -4.39453 53.5518 0
    endloop
  endfacet
  facet normal 0 0 -1
    outer loop
      vertex -4.66211 55.2881 0
      vertex -4.39453 53.5518 0
      vertex -4.42676 53.4639 0
    endloop
  endfacet
  facet normal 0 0 -1
    outer loop
      vertex -4.66211 55.2881 0
      vertex -4.42676 53.4639 0
      vertex -4.45312 53.373 0
    endloop
  endfacet
  facet normal 0 0 -1
    outer loop
      vertex -4.66211 55.2881 0
      vertex -4.45312 53.373 0
      vertex -4.47363 53.2812 0
    endloop
  endfacet
  facet normal 0 0 -1
    outer loop
      vertex -4.66211 55.2881 0
      vertex -4.47363 53.2812 0
      vertex -4.48828 53.1885 0
    endloop
  endfacet
  facet normal 0 0 -1
    outer loop
      vertex -4.66211 55.2881 0
      vertex -4.48828 53.1885 0
      vertex -4.49707 53.0938 0
    endloop
  endfacet
  facet normal 0 0 -1
    outer loop
      vertex -3.80371 54.2666 0
      vertex -4.51562 55.3877 0
      vertex -4.3623 55.4785 0
    endloop
  endfacet
  facet normal 0 0 -1
    outer loop
      vertex -5.82324 53.1777 0
      vertex -4.49707 53.0938 0
      vertex -4.5 53 0
    endloop
  endfacet
  facet normal 0 0 -1
    outer loop
      vertex 51.8232 -3.17773 0
      vertex 50.4971 -3.09375 0
      vertex 50.5 -3 0
    endloop
  endfacet
  facet normal 0 0 -1
    outer loop
      vertex 50.6621 -5.28809 0
      vertex 50.4883 -3.18848 0
      vertex 50.4971 -3.09375 0
    endloop
  endfacet
  facet normal 0 0 -1
    outer loop
      vertex 50.6621 -5.28809 0
      vertex 50.4736 -3.28125 0
      vertex 50.4883 -3.18848 0
    endloop
  endfacet
  facet normal 0 0 -1
    outer loop
      vertex 50.6621 -5.28809 0
      vertex 50.4531 -3.37305 0
      vertex 50.4736 -3.28125 0
    endloop
  endfacet
  facet normal 0 0 -1
    outer loop
      vertex 50.6621 -5.28809 0
      vertex 50.4268 -3.46387 0
      vertex 50.4531 -3.37305 0
    endloop
  endfacet
  facet normal 0 0 -1
    outer loop
      vertex 50.6621 -5.28809 0
      vertex 50.3945 -3.55176 0
      vertex 50.4268 -3.46387 0
    endloop
  endfacet
  facet normal 0 0 -1
    outer loop
      vertex 49.8037 -4.2666 0
      vertex 50.5156 -5.3877 0
      vertex 50.3623 -5.47852 0
    endloop
  endfacet
  facet normal 0 0 -1
    outer loop
      vertex 50.6621 -5.28809 0
      vertex 50.3574 -3.63867 0
      vertex 50.3945 -3.55176 0
    endloop
  endfacet
  facet normal 0 0 -1
    outer loop
      vertex 50.6621 -5.28809 0
      vertex 50.3145 -3.72266 0
      vertex 50.3574 -3.63867 0
    endloop
  endfacet
  facet normal 0 0 -1
    outer loop
      vertex 50.6621 -5.28809 0
      vertex 50.2666 -3.80371 0
      vertex 50.3145 -3.72266 0
    endloop
  endfacet
  facet normal 0 0 -1
    outer loop
      vertex 50.6621 -5.28809 0
      vertex 50.2139 -3.88184 0
      vertex 50.2666 -3.80371 0
    endloop
  endfacet
  facet normal 0 0 -1
    outer loop
      vertex 49.7227 -4.31445 0
      vertex 50.3623 -5.47852 0
      vertex 50.2041 -5.55957 0
    endloop
  endfacet
  facet normal 0 0 -1
    outer loop
      vertex 50.6621 -5.28809 0
      vertex 50.1562 -3.95605 0
      vertex 50.2139 -3.88184 0
    endloop
  endfacet
  facet normal 0 0 -1
    outer loop
      vertex 50.6621 -5.28809 0
      vertex 50.0938 -4.02637 0
      vertex 50.1562 -3.95605 0
    endloop
  endfacet
  facet normal 0 0 -1
    outer loop
      vertex 49.6387 -4.35742 0
      vertex 50.2041 -5.55957 0
      vertex 50.041 -5.62988 0
    endloop
  endfacet
  facet normal 0 0 -1
    outer loop
      vertex 50.6621 -5.28809 0
      vertex 50.0264 -4.09375 0
      vertex 50.0938 -4.02637 0
    endloop
  endfacet
  facet normal 0 0 -1
    outer loop
      vertex 50.6621 -5.28809 0
      vertex 49.9561 -4.15625 0
      vertex 50.0264 -4.09375 0
    endloop
  endfacet
  facet normal 0 0 -1
    outer loop
      vertex 50.6621 -5.28809 0
      vertex 49.8818 -4.21387 0
      vertex 49.9561 -4.15625 0
    endloop
  endfacet
  facet normal 0 0 -1
    outer loop
      vertex 49.5518 -4.39453 0
      vertex 50.041 -5.62988 0
      vertex 49.874 -5.69043 0
    endloop
  endfacet
  facet normal 0 0 -1
    outer loop
      vertex 50.5156 -5.3877 0
      vertex 49.8037 -4.2666 0
      vertex 49.8818 -4.21387 0
    endloop
  endfacet
  facet normal 0 0 -1
    outer loop
      vertex 50.3623 -5.47852 0
      vertex 49.7227 -4.31445 0
      vertex 49.8037 -4.2666 0
    endloop
  endfacet
  facet normal 0 0 -1
    outer loop
      vertex 49.4639 -4.42676 0
      vertex 49.874 -5.69043 0
      vertex 49.7031 -5.73926 0
    endloop
  endfacet
  facet normal 0 0 -1
    outer loop
      vertex 50.2041 -5.55957 0
      vertex 49.6387 -4.35742 0
      vertex 49.7227 -4.31445 0
    endloop
  endfacet
  facet normal 0 0 -1
    outer loop
      vertex 50.041 -5.62988 0
      vertex 49.5518 -4.39453 0
      vertex 49.6387 -4.35742 0
    endloop
  endfacet
  facet normal 0 0 -1
    outer loop
      vertex 49.373 -4.45312 0
      vertex 49.7031 -5.73926 0
      vertex 49.5303 -5.77832 0
    endloop
  endfacet
  facet normal 0 0 -1
    outer loop
      vertex 49.874 -5.69043 0
      vertex 49.4639 -4.42676 0
      vertex 49.5518 -4.39453 0
    endloop
  endfacet
  facet normal 0 0 -1
    outer loop
      vertex 49.7031 -5.73926 0
      vertex 49.373 -4.45312 0
      vertex 49.4639 -4.42676 0
    endloop
  endfacet
  facet normal 0 0 -1
    outer loop
      vertex 49.2812 -4.47363 0
      vertex 49.5303 -5.77832 0
      vertex 49.3545 -5.80566 0
    endloop
  endfacet
  facet normal 0 0 -1
    outer loop
      vertex 49.5303 -5.77832 0
      vertex 49.2812 -4.47363 0
      vertex 49.373 -4.45312 0
    endloop
  endfacet
  facet normal 0 0 -1
    outer loop
      vertex 49.3545 -5.80566 0
      vertex 49.1885 -4.48828 0
      vertex 49.2812 -4.47363 0
    endloop
  endfacet
  facet normal 0 0 -1
    outer loop
      vertex 49.1777 -5.82324 0
      vertex 49.1885 -4.48828 0
      vertex 49.3545 -5.80566 0
    endloop
  endfacet
  facet normal 0 0 -1
    outer loop
      vertex 49.1777 -5.82324 0
      vertex 49.0938 -4.49707 0
      vertex 49.1885 -4.48828 0
    endloop
  endfacet
  facet normal 0 0 -1
    outer loop
      vertex 49 -5.82812 0
      vertex 49.0938 -4.49707 0
      vertex 49.1777 -5.82324 0
    endloop
  endfacet
  facet normal 0 0 -1
    outer loop
      vertex 49 -5.82812 0
      vertex 49 -4.5 0
      vertex 49.0938 -4.49707 0
    endloop
  endfacet
  facet normal 0 0 -1
    outer loop
      vertex 49 -5.82812 0
      vertex 48.9062 -4.49707 0
      vertex 49 -4.5 0
    endloop
  endfacet
  facet normal 0 0 -1
    outer loop
      vertex 49 -5.82812 0
      vertex 48.8115 -4.48828 0
      vertex 48.9062 -4.49707 0
    endloop
  endfacet
  facet normal 0 0 -1
    outer loop
      vertex 49 -5.82812 0
      vertex 48.7188 -4.47363 0
      vertex 48.8115 -4.48828 0
    endloop
  endfacet
  facet normal 0 0 -1
    outer loop
      vertex 49 -5.82812 0
      vertex 48.627 -4.45312 0
      vertex 48.7188 -4.47363 0
    endloop
  endfacet
  facet normal 0 0 -1
    outer loop
      vertex 49 -5.82812 0
      vertex 48.5361 -4.42676 0
      vertex 48.627 -4.45312 0
    endloop
  endfacet
  facet normal 0 0 -1
    outer loop
      vertex 49 -5.82812 0
      vertex 48.4482 -4.39453 0
      vertex 48.5361 -4.42676 0
    endloop
  endfacet
  facet normal 0 0 -1
    outer loop
      vertex 49 -5.82812 0
      vertex 48.3613 -4.35742 0
      vertex 48.4482 -4.39453 0
    endloop
  endfacet
  facet normal 0 0 -1
    outer loop
      vertex 49 -5.82812 0
      vertex 48.2773 -4.31445 0
      vertex 48.3613 -4.35742 0
    endloop
  endfacet
  facet normal 0 0 -1
    outer loop
      vertex 49 -5.82812 0
      vertex 48.1963 -4.2666 0
      vertex 48.2773 -4.31445 0
    endloop
  endfacet
  facet normal 0 0 -1
    outer loop
      vertex 49 -5.82812 0
      vertex 48.1182 -4.21387 0
      vertex 48.1963 -4.2666 0
    endloop
  endfacet
  facet normal 0 0 -1
    outer loop
      vertex 49 -5.82812 0
      vertex 48.0439 -4.15625 0
      vertex 48.1182 -4.21387 0
    endloop
  endfacet
  facet normal 0 0 -1
    outer loop
      vertex 49 -5.82812 0
      vertex 47.9736 -4.09375 0
      vertex 48.0439 -4.15625 0
    endloop
  endfacet
  facet normal 0 0 -1
    outer loop
      vertex 49 -5.82812 0
      vertex 47.9062 -4.02637 0
      vertex 47.9736 -4.09375 0
    endloop
  endfacet
  facet normal 0 0 -1
    outer loop
      vertex 49 -5.82812 0
      vertex 47.8438 -3.95605 0
      vertex 47.9062 -4.02637 0
    endloop
  endfacet
  facet normal 0 0 -1
    outer loop
      vertex 49 -5.82812 0
      vertex 47.7861 -3.88184 0
      vertex 47.8438 -3.95605 0
    endloop
  endfacet
  facet normal 0 0 -1
    outer loop
      vertex 30 -3 0
      vertex 47.7861 -3.88184 0
      vertex 49 -5.82812 0
    endloop
  endfacet
  facet normal 0 0 -1
    outer loop
      vertex 47.5264 52.7188 0
      vertex 32 53 0
      vertex 47.5117 52.8115 0
    endloop
  endfacet
  facet normal 0 0 -1
    outer loop
      vertex 30 -3 0
      vertex 47.5 -3 0
      vertex 47.5029 -3.09375 0
    endloop
  endfacet
  facet normal 0 0 -1
    outer loop
      vertex 47.5029 -2.90625 0
      vertex 27.9883 16.377 0
      vertex 45 37 0
    endloop
  endfacet
  facet normal 0 0 -1
    outer loop
      vertex 30 -3 0
      vertex 47.5029 -3.09375 0
      vertex 47.5117 -3.18848 0
    endloop
  endfacet
  facet normal 0 0 -1
    outer loop
      vertex 30 -3 0
      vertex 47.5117 -3.18848 0
      vertex 47.5264 -3.28125 0
    endloop
  endfacet
  facet normal 0 0 -1
    outer loop
      vertex 30 -3 0
      vertex 47.5264 -3.28125 0
      vertex 47.5469 -3.37305 0
    endloop
  endfacet
  facet normal 0 0 -1
    outer loop
      vertex 30 -3 0
      vertex 47.5469 -3.37305 0
      vertex 47.5732 -3.46387 0
    endloop
  endfacet
  facet normal 0 0 -1
    outer loop
      vertex 16 53 0
      vertex 33 44 0
      vertex 33 37 0
    endloop
  endfacet
  facet normal 0 0 -1
    outer loop
      vertex 47.7861 -3.88184 0
      vertex 30 -3 0
      vertex 47.7334 -3.80371 0
    endloop
  endfacet
  facet normal 0 0 -1
    outer loop
      vertex 30 -3 0
      vertex 47.6855 -3.72266 0
      vertex 47.7334 -3.80371 0
    endloop
  endfacet
  facet normal 0 0 -1
    outer loop
      vertex 30 -3 0
      vertex 47.6426 -3.63867 0
      vertex 47.6855 -3.72266 0
    endloop
  endfacet
  facet normal 0 0 -1
    outer loop
      vertex 30 -3 0
      vertex 47.6055 -3.55176 0
      vertex 47.6426 -3.63867 0
    endloop
  endfacet
  facet normal 0 0 -1
    outer loop
      vertex 30 -3 0
      vertex 47.5732 -3.46387 0
      vertex 47.6055 -3.55176 0
    endloop
  endfacet
  facet normal 0 0 -1
    outer loop
      vertex 27.2578 13.1094 0
      vertex 47.5029 -2.90625 0
      vertex 30 -3 0
    endloop
  endfacet
  facet normal 0 0 -1
    outer loop
      vertex 47.5029 -2.90625 0
      vertex 28 16 0
      vertex 27.9883 16.377 0
    endloop
  endfacet
  facet normal 0 0 -1
    outer loop
      vertex 45 37 0
      vertex 27.9883 16.377 0
      vertex 27.9531 16.752 0
    endloop
  endfacet
  facet normal 0 0 -1
    outer loop
      vertex 45 37 0
      vertex 27.9531 16.752 0
      vertex 27.8936 17.124 0
    endloop
  endfacet
  facet normal 0 0 -1
    outer loop
      vertex 27.8115 17.4922 0
      vertex 45 37 0
      vertex 27.8936 17.124 0
    endloop
  endfacet
  facet normal 0 0 -1
    outer loop
      vertex 27.7061 17.8545 0
      vertex 45 37 0
      vertex 27.8115 17.4922 0
    endloop
  endfacet
  facet normal 0 0 -1
    outer loop
      vertex 27.5791 18.209 0
      vertex 45 37 0
      vertex 27.7061 17.8545 0
    endloop
  endfacet
  facet normal 0 0 -1
    outer loop
      vertex 27.4287 18.5547 0
      vertex 45 37 0
      vertex 27.5791 18.209 0
    endloop
  endfacet
  facet normal 0 0 -1
    outer loop
      vertex 27.2578 18.8906 0
      vertex 45 37 0
      vertex 27.4287 18.5547 0
    endloop
  endfacet
  facet normal -0 0 -1
    outer loop
      vertex 45 37 0
      vertex 27.2578 18.8906 0
      vertex 33 37 0
    endloop
  endfacet
  facet normal 0 0 -1
    outer loop
      vertex 27.066