solid OpenSCAD_Model
  facet normal -0.979908 0.155202 -0.125272
    outer loop
      vertex -39.1246 7.22468 -4
      vertex -39.5085 4.99108 -3.76433
      vertex -39.1171 7.46199 -3.76433
    endloop
  endfacet
  facet normal -0.979908 0.155202 -0.125273
    outer loop
      vertex -39.5085 4.99108 -3.76433
      vertex -39.1246 7.22468 -4
      vertex -39.4789 4.98735 -4
    endloop
  endfacet
  facet normal 0.500033 0.845511 0.187292
    outer loop
      vertex 21.1692 33.3573 6.25738
      vertex 19.0329 34.6207 6.25738
      vertex 20.9169 32.9598 8.72573
    endloop
  endfacet
  facet normal 0.394019 0.910525 0.125272
    outer loop
      vertex 14.6596 37.026 3.76433
      vertex 14.5437 36.7332 6.25738
      vertex 16.8215 35.7475 6.25738
    endloop
  endfacet
  facet normal -0.67253 -0.67253 0.308879
    outer loop
      vertex -28.001 -26.2947 11.1596
      vertex -25.7631 -27.4349 13.5495
      vertex -27.4349 -25.7631 13.5495
    endloop
  endfacet
  facet normal -0.67253 -0.67253 0.308879
    outer loop
      vertex -25.7631 -27.4349 13.5495
      vertex -28.001 -26.2947 11.1596
      vertex -26.2947 -28.001 11.1596
    endloop
  endfacet
  facet normal 0.191181 0.855301 0.481571
    outer loop
      vertex 6.67832 35.009 18.1596
      vertex 6.45148 33.8198 20.3617
      vertex 8.86337 34.5206 18.1596
    endloop
  endfacet
  facet normal 0.694594 0.694594 0.187292
    outer loop
      vertex 26.7224 28.4565 8.72573
      vertex 28.7998 27.0448 6.25738
      vertex 27.0448 28.7998 6.25738
    endloop
  endfacet
  facet normal 0.694594 0.694594 0.187292
    outer loop
      vertex 28.7998 27.0448 6.25738
      vertex 26.7224 28.4565 8.72573
      vertex 28.4565 26.7224 8.72573
    endloop
  endfacet
  facet normal -0.0229029 0.728777 0.684368
    outer loop
      vertex 0 28.2843 28.2843
      vertex -1.88399 29.9452 26.4525
      vertex -1.77598 28.2285 28.2843
    endloop
  endfacet
  facet normal 0.701537 -0.701537 -0.125269
    outer loop
      vertex 29.0293 -27.2604 -3.76433
      vertex 27.24 -29.0076 -4
      vertex 29.0076 -27.24 -4
    endloop
  endfacet
  facet normal 0.701537 -0.701537 -0.125269
    outer loop
      vertex 27.24 -29.0076 -4
      vertex 29.0293 -27.2604 -3.76433
      vertex 27.2604 -29.0293 -3.76433
    endloop
  endfacet
  facet normal 0.765354 0.593669 0.248575
    outer loop
      vertex 31.5813 22.9452 8.72573
      vertex 29.5968 24.4846 11.1596
      vertex 31.0758 22.5779 11.1596
    endloop
  endfacet
  facet normal 0.218143 0.975917 -0
    outer loop
      vertex 9.94269 38.7242 -1.25643
      vertex 7.49155 39.2721 1.25643
      vertex 9.94269 38.7242 1.25643
    endloop
  endfacet
  facet normal 0.218143 0.975917 0
    outer loop
      vertex 7.49155 39.2721 1.25643
      vertex 9.94269 38.7242 -1.25643
      vertex 7.49155 39.2721 -1.25643
    endloop
  endfacet
  facet normal 0.27844 0.958401 0.0627602
    outer loop
      vertex 9.94269 38.7242 1.25643
      vertex 9.90345 38.5714 3.76433
      vertex 12.3058 37.8734 3.76433
    endloop
  endfacet
  facet normal -0.697482 -0.614913 0.367968
    outer loop
      vertex -26.7606 -25.1299 15.8859
      vertex -28.2857 -23.4 15.8859
      vertex -27.4349 -25.7631 13.5495
    endloop
  endfacet
  facet normal 0.218143 -0.975917 0
    outer loop
      vertex 7.49155 -39.2721 -1.25643
      vertex 9.94269 -38.7242 1.25643
      vertex 7.49155 -39.2721 1.25643
    endloop
  endfacet
  facet normal 0.218143 -0.975917 0
    outer loop
      vertex 9.94269 -38.7242 1.25643
      vertex 7.49155 -39.2721 -1.25643
      vertex 9.94269 -38.7242 -1.25643
    endloop
  endfacet
  facet normal -0.151525 -0.956687 0.248575
    outer loop
      vertex -7.19764 -37.7314 11.1596
      vertex -7.31474 -38.3452 8.72573
      vertex -4.81427 -38.1089 11.1596
    endloop
  endfacet
  facet normal 0.734717 -0.569905 0.367968
    outer loop
      vertex 30.4475 -22.1214 13.5495
      vertex 28.2857 -23.4 15.8859
      vertex 28.9984 -23.9896 13.5495
    endloop
  endfacet
  facet normal 0.460635 -0.778892 0.425608
    outer loop
      vertex 19.097 -30.0921 18.1596
      vertex 17.1698 -31.2318 18.1596
      vertex 17.6853 -32.1694 15.8859
    endloop
  endfacet
  facet normal -0.734717 0.569905 0.367968
    outer loop
      vertex -28.9984 23.9896 13.5495
      vertex -30.4475 22.1214 13.5495
      vertex -28.2857 23.4 15.8859
    endloop
  endfacet
  facet normal -0.748632 -0.660008 0.0627602
    outer loop
      vertex -29.0293 -27.2604 3.76433
      vertex -30.6837 -25.3838 3.76433
      vertex -29.1444 -27.3684 1.25643
    endloop
  endfacet
  facet normal 0.484175 -0.484175 0.7288
    outer loop
      vertex 20.4992 -19.25 28.4378
      vertex 19.3619 -20.6183 28.2843
      vertex 20.6183 -19.3619 28.2843
    endloop
  endfacet
  facet normal 0.484175 -0.484175 0.7288
    outer loop
      vertex 18.141 -19.25 30.0044
      vertex 19.3619 -20.6183 28.2843
      vertex 20.4992 -19.25 28.4378
    endloop
  endfacet
  facet normal 0.484175 -0.484175 0.7288
    outer loop
      vertex 19.3619 -20.6183 28.2843
      vertex 18.141 -19.25 30.0044
      vertex 18.108 -19.283 30.0044
    endloop
  endfacet
  facet normal -0.207476 0.928196 0.30888
    outer loop
      vertex -7.19764 37.7314 11.1596
      vertex -9.55261 37.205 11.1596
      vertex -7.05214 36.9686 13.5495
    endloop
  endfacet
  facet normal 0.845511 0.500034 0.187292
    outer loop
      vertex 34.4293 19.25 6.54182
      vertex 32.9598 20.9169 8.72573
      vertex 33.9455 19.25 8.72573
    endloop
  endfacet
  facet normal 0.450414 0.883987 0.125273
    outer loop
      vertex 19.1846 34.8967 3.76433
      vertex 16.8215 35.7475 6.25738
      vertex 19.0329 34.6207 6.25738
    endloop
  endfacet
  facet normal -0.33607 -0.933469 0.125272
    outer loop
      vertex -14.5437 -36.7332 6.25738
      vertex -14.6596 -37.026 3.76433
      vertex -12.3058 -37.8734 3.76433
    endloop
  endfacet
  facet normal 0.845511 -0.500033 0.187292
    outer loop
      vertex 33.3573 -21.1692 6.25738
      vertex 34.4293 -19.25 6.54182
      vertex 32.9598 -20.9169 8.72573
    endloop
  endfacet
  facet normal 0.845511 -0.500033 0.187293
    outer loop
      vertex 34.4293 -19.25 6.54182
      vertex 33.3573 -21.1692 6.25738
      vertex 34.4923 -19.25 6.25738
    endloop
  endfacet
  facet normal -0.724861 0.492615 0.481567
    outer loop
      vertex -29.7918 19.25 18.4551
      vertex -28.8336 20.9488 18.1596
      vertex -29.9881 19.25 18.1596
    endloop
  endfacet
  facet normal -0.724859 0.492615 0.481571
    outer loop
      vertex -28.8336 20.9488 18.1596
      vertex -29.7918 19.25 18.4551
      vertex -27.8542 20.2373 20.3617
    endloop
  endfacet
  facet normal -0.076149 0.805564 0.587595
    outer loop
      vertex -2.07731 33.0179 22.4833
      vertex -4.14643 32.8223 22.4833
      vertex -1.98457 31.5438 24.5163
    endloop
  endfacet
  facet normal -0.199169 -0.553215 0.808879
    outer loop
      vertex -6.94773 -21.3829 33.0832
      vertex -9.02505 -22.7947 31.6062
      vertex -7.57595 -23.3164 31.6062
    endloop
  endfacet
  facet normal -0.0939229 -0.993599 0.0627598
    outer loop
      vertex -4.99108 -39.5085 3.76433
      vertex -5.01085 -39.665 1.25643
      vertex -2.50047 -39.7439 3.76433
    endloop
  endfacet
  facet normal -0.993599 -0.0939228 -0.0627603
    outer loop
      vertex -39.5085 -4.99108 -3.76433
      vertex -39.6884 -4.26655 -2
      vertex -39.7439 -2.50047 -3.76433
    endloop
  endfacet
  facet normal -0.993599 -0.0939252 -0.0627593
    outer loop
      vertex -39.6884 -4.26655 -2
      vertex -39.5085 -4.99108 -3.76433
      vertex -39.6186 -5.00499 -2
    endloop
  endfacet
  facet normal -0.217713 -0.973993 -0.0627602
    outer loop
      vertex -7.46199 -39.1171 -3.76433
      vertex -9.94269 -38.7242 -1.25643
      vertex -9.90345 -38.5714 -3.76433
    endloop
  endfacet
  facet normal 0.748632 -0.660008 -0.0627602
    outer loop
      vertex 29.1444 -27.3684 -1.25643
      vertex 29.0293 -27.2604 -3.76433
      vertex 30.6837 -25.3838 -3.76433
    endloop
  endfacet
  facet normal -0.105135 -0.470332 0.876205
    outer loop
      vertex -3.67213 -19.25 34.85
      vertex -4.03358 -19.25 34.8066
      vertex -3.81539 -20.001 34.4297
    endloop
  endfacet
  facet normal 0.552137 -0.812445 0.187292
    outer loop
      vertex 22.9452 -31.5813 8.72573
      vertex 20.9169 -32.9598 8.72573
      vertex 23.2219 -31.9623 6.25738
    endloop
  endfacet
  facet normal -0.422138 0.828492 0.367967
    outer loop
      vertex -16.0243 34.0534 13.5495
      vertex -17.6853 32.1694 15.8859
      vertex -15.6304 33.2164 15.8859
    endloop
  endfacet
  facet normal -0.640555 0.726567 0.248575
    outer loop
      vertex -24.4846 29.5968 11.1596
      vertex -26.7224 28.4565 8.72573
      vertex -26.2947 28.001 11.1596
    endloop
  endfacet
  facet normal 0.409835 0.603056 0.684367
    outer loop
      vertex 16.0772 25.3336 26.4525
      vertex 15.1555 23.8812 28.2843
      vertex 17.6362 24.2741 26.4525
    endloop
  endfacet
  facet normal 0.546934 0.482187 0.684368
    outer loop
      vertex 21.8723 20.5395 26.4525
      vertex 21.8318 19.25 27.3934
      vertex 23.0091 19.25 26.4525
    endloop
  endfacet
  facet normal 0.987719 0.0933672 -0.125273
    outer loop
      vertex 39.5085 4.99108 -3.76433
      vertex 39.6921 2.73218 -4
      vertex 39.4789 4.98735 -4
    endloop
  endfacet
  facet normal 0.987719 0.093367 -0.125271
    outer loop
      vertex 39.6921 2.73218 -4
      vertex 39.5085 4.99108 -3.76433
      vertex 39.7439 2.50047 -3.76433
    endloop
  endfacet
  facet normal 0.748632 0.660008 0.0627602
    outer loop
      vertex 29.1444 27.3684 1.25643
      vertex 29.0293 27.2604 3.76433
      vertex 30.6837 25.3838 3.76433
    endloop
  endfacet
  facet normal 0.82545 0.560975 0.0627601
    outer loop
      vertex 32.3447 23.4998 1.25643
      vertex 32.2171 23.4071 3.76433
      vertex 33.7565 21.4225 1.25643
    endloop
  endfacet
  facet normal 0.14156 -0.893767 0.425608
    outer loop
      vertex 6.8788 -36.0599 15.8859
      vertex 4.46691 -35.3592 18.1596
      vertex 4.60101 -36.4207 15.8859
    endloop
  endfacet
  facet normal -0.271938 -0.628411 0.7288
    outer loop
      vertex -11.2629 -23.9349 30.0044
      vertex -12.0429 -25.5924 28.2843
      vertex -10.4121 -26.298 28.2843
    endloop
  endfacet
  facet normal -0.495937 -0.639358 0.587595
    outer loop
      vertex -18.5777 -25.57 24.5163
      vertex -20.1465 -24.353 24.5163
      vertex -19.4458 -26.7649 22.4833
    endloop
  endfacet
  facet normal -0.987719 -0.0933672 -0.125273
    outer loop
      vertex -39.5085 -4.99108 -3.76433
      vertex -39.6921 -2.73218 -4
      vertex -39.4789 -4.98735 -4
    endloop
  endfacet
  facet normal -0.987719 -0.093367 -0.125271
    outer loop
      vertex -39.6921 -2.73218 -4
      vertex -39.5085 -4.99108 -3.76433
      vertex -39.7439 -2.50047 -3.76433
    endloop
  endfacet
  facet normal -0.678782 -0.598426 0.425607
    outer loop
      vertex -25.9806 -24.3974 18.1596
      vertex -28.2857 -23.4 15.8859
      vertex -26.7606 -25.1299 15.8859
    endloop
  endfacet
  facet normal -0.0311654 0.991632 -0.12528
    outer loop
      vertex 0 39.7927 -4
      vertex -0.234501 39.7853 -4
      vertex 0 39.8225 -3.76433
    endloop
  endfacet
  facet normal -0.883986 0.450414 -0.125282
    outer loop
      vertex -34.8706 19.1703 -4
      vertex -34.9771 18.9612 -4
      vertex -34.8967 19.1846 -3.76433
    endloop
  endfacet
  facet normal -0.859045 0.508039 -0.0627628
    outer loop
      vertex -35.0156 19.25 -1.60742
      vertex -33.7565 21.4225 -1.25643
      vertex -34.9869 19.25 -2
    endloop
  endfacet
  facet normal -0.859029 0.508065 -0.0627592
    outer loop
      vertex -34.9869 19.25 -2
      vertex -34.8967 19.1846 -3.76433
      vertex -34.994 19.2381 -2
    endloop
  endfacet
  facet normal -0.859045 0.508038 -0.062759
    outer loop
      vertex -34.8967 19.1846 -3.76433
      vertex -34.9869 19.25 -2
      vertex -33.7565 21.4225 -1.25643
    endloop
  endfacet
  facet normal -0.859046 0.508038 -0.0627549
    outer loop
      vertex -33.7565 21.4225 -1.25643
      vertex -35.0156 19.25 -1.60742
      vertex -35.035 19.2606 -1.25643
    endloop
  endfacet
  facet normal -0.286046 -0.794524 0.535639
    outer loop
      vertex -12.1787 -30.76 22.4833
      vertex -12.6744 -32.0119 20.3617
      vertex -10.2233 -31.464 22.4833
    endloop
  endfacet
  facet normal 0.639358 -0.495937 0.587595
    outer loop
      vertex 26.7649 -19.4458 22.4833
      vertex 24.353 -20.1465 24.5163
      vertex 25.4911 -21.088 22.4833
    endloop
  endfacet
  facet normal 0.168116 -0.752108 0.637237
    outer loop
      vertex 7.86014 -30.6132 24.5163
      vertex 5.62227 -29.473 26.4525
      vertex 5.92241 -31.0464 24.5163
    endloop
  endfacet
  facet normal -0.422139 -0.828492 0.367967
    outer loop
      vertex -17.6853 -32.1694 15.8859
      vertex -18.1309 -32.98 13.5495
      vertex -16.0243 -34.0534 13.5495
    endloop
  endfacet
  facet normal -0.252462 -0.868977 0.425607
    outer loop
      vertex -8.86337 -34.5206 18.1596
      vertex -11.0134 -33.8959 18.1596
      vertex -9.12945 -35.5569 15.8859
    endloop
  endfacet
  facet normal 0.557656 -0.820565 0.125272
    outer loop
      vertex 23.2219 -31.9623 6.25738
      vertex 21.1692 -33.3573 6.25738
      vertex 21.338 -33.6232 3.76433
    endloop
  endfacet
  facet normal 0.322174 -0.894873 0.30888
    outer loop
      vertex 13.8545 -34.9924 13.5495
      vertex 11.8699 -36.5317 11.1596
      vertex 14.1403 -35.7143 11.1596
    endloop
  endfacet
  facet normal 0.608079 -0.78393 0.125272
    outer loop
      vertex 25.183 -30.4411 6.25738
      vertex 23.4071 -32.2171 3.76433
      vertex 25.3838 -30.6837 3.76433
    endloop
  endfacet
  facet normal 0.606956 -0.535104 0.587595
    outer loop
      vertex 24.353 -20.1465 24.5163
      vertex 24.1166 -22.647 22.4833
      vertex 25.4911 -21.088 22.4833
    endloop
  endfacet
  facet normal -0.0939229 0.993599 0.0627598
    outer loop
      vertex -2.50047 39.7439 3.76433
      vertex -5.01085 39.665 1.25643
      vertex -4.99108 39.5085 3.76433
    endloop
  endfacet
  facet normal -0.377727 0.872878 0.308879
    outer loop
      vertex -13.8545 34.9924 13.5495
      vertex -16.3549 34.756 11.1596
      vertex -16.0243 34.0534 13.5495
    endloop
  endfacet
  facet normal 0.151525 0.956687 0.248575
    outer loop
      vertex 4.89259 38.7289 8.72573
      vertex 4.81427 38.1089 11.1596
      vertex 7.31474 38.3452 8.72573
    endloop
  endfacet
  facet normal -0.396364 -0.915946 0.0627602
    outer loop
      vertex -16.9556 -36.0325 3.76433
      vertex -17.0228 -36.1752 1.25643
      vertex -14.7177 -37.1727 1.25643
    endloop
  endfacet
  facet normal 0.231943 0.644246 0.7288
    outer loop
      vertex 10.4121 26.298 28.2843
      vertex 8.17426 25.1578 30.0044
      vertex 9.73781 24.5949 30.0044
    endloop
  endfacet
  facet normal 0.296871 0.824595 0.481571
    outer loop
      vertex 11.0134 33.8959 18.1596
      vertex 10.6394 32.7446 20.3617
      vertex 12.6744 32.0119 20.3617
    endloop
  endfacet
  facet normal 0.505034 0.853959 -0.125279
    outer loop
      vertex 21.322 33.5981 -4
      vertex 21.1201 33.7175 -4
      vertex 21.338 33.6232 -3.76433
    endloop
  endfacet
  facet normal -0.0311641 0.991633 0.125272
    outer loop
      vertex 0 39.8225 3.76433
      vertex -2.4807 39.4296 6.25738
      vertex 0 39.5075 6.25738
    endloop
  endfacet
  facet normal 0.473326 0.800351 0.367967
    outer loop
      vertex 18.1309 32.98 13.5495
      vertex 17.6853 32.1694 15.8859
      vertex 20.166 31.7765 13.5495
    endloop
  endfacet
  facet normal 0.853962 0.505031 0.125272
    outer loop
      vertex 34.858 19.25 3.76433
      vertex 33.6232 21.338 3.76433
      vertex 34.5268 19.25 6.02257
    endloop
  endfacet
  facet normal 0.429859 0.726851 0.535638
    outer loop
      vertex 16.5866 30.171 20.3617
      vertex 15.938 28.991 22.4833
      vertex 17.7269 27.9331 22.4833
    endloop
  endfacet
  facet normal 0.534598 0.786637 0.308879
    outer loop
      vertex 20.582 32.4321 11.1596
      vertex 20.166 31.7765 13.5495
      vertex 22.1214 30.4475 13.5495
    endloop
  endfacet
  facet normal 0.349876 0.68667 0.637237
    outer loop
      vertex 13.4573 28.5981 24.5163
      vertex 12.7753 27.1488 26.4525
      vertex 15.2264 27.6967 24.5163
    endloop
  endfacet
  facet normal 0.21501 0.740067 0.637237
    outer loop
      vertex 9.76685 30.0593 24.5163
      vertex 7.86014 30.6132 24.5163
      vertex 9.27188 28.5359 26.4525
    endloop
  endfacet
  facet normal 0.392302 0.663346 0.637237
    outer loop
      vertex 16.9354 26.686 24.5163
      vertex 15.2264 27.6967 24.5163
      vertex 16.0772 25.3336 26.4525
    endloop
  endfacet
  facet normal 0.639358 0.495937 0.587595
    outer loop
      vertex 26.4954 19.25 22.9419
      vertex 24.353 20.1465 24.5163
      vertex 25.0484 19.25 24.5163
    endloop
  endfacet
  facet normal 0.639358 0.495937 0.587595
    outer loop
      vertex 24.353 20.1465 24.5163
      vertex 26.4954 19.25 22.9419
      vertex 26.7649 19.4458 22.4833
    endloop
  endfacet
  facet normal 0.750111 0.661312 0
    outer loop
      vertex 30.8053 25.4844 1.25643
      vertex 29.1444 27.3684 -1.25643
      vertex 29.1444 27.3684 1.25643
    endloop
  endfacet
  facet normal 0.750111 0.661312 0
    outer loop
      vertex 29.1444 27.3684 -1.25643
      vertex 30.8053 25.4844 1.25643
      vertex 30.8053 25.4844 -1.25643
    endloop
  endfacet
  facet normal 0.827081 0.562083 0
    outer loop
      vertex 33.7565 21.4225 1.25643
      vertex 32.3447 23.4998 -1.25643
      vertex 32.3447 23.4998 1.25643
    endloop
  endfacet
  facet normal 0.827081 0.562083 0
    outer loop
      vertex 32.3447 23.4998 -1.25643
      vertex 33.7565 21.4225 1.25643
      vertex 33.7565 21.4225 -1.25643
    endloop
  endfacet
  facet normal 0.78393 0.608078 -0.125275
    outer loop
      vertex 30.6837 25.3838 -3.76433
      vertex 32.0492 23.5749 -4
      vertex 30.6608 25.3648 -4
    endloop
  endfacet
  facet normal 0.78393 0.608078 -0.125278
    outer loop
      vertex 32.0492 23.5749 -4
      vertex 30.6837 25.3838 -3.76433
      vertex 32.2171 23.4071 -3.76433
    endloop
  endfacet
  facet normal 0.790155 0.612907 0
    outer loop
      vertex 32.3447 23.4998 1.25643
      vertex 30.8053 25.4844 -1.25643
      vertex 30.8053 25.4844 1.25643
    endloop
  endfacet
  facet normal 0.790155 0.612907 0
    outer loop
      vertex 30.8053 25.4844 -1.25643
      vertex 32.3447 23.4998 1.25643
      vertex 32.3447 23.4998 -1.25643
    endloop
  endfacet
  facet normal 0.744202 0.656102 0.125272
    outer loop
      vertex 30.6837 25.3838 3.76433
      vertex 28.7998 27.0448 6.25738
      vertex 30.4411 25.183 6.25738
    endloop
  endfacet
  facet normal 0.889243 0.45311 0.0627545
    outer loop
      vertex 35.035 19.2606 1.25643
      vertex 35.0156 19.25 1.60742
      vertex 35.0396 19.25 1.268
    endloop
  endfacet
  facet normal 0.845511 0.500033 0.187292
    outer loop
      vertex 34.4293 19.25 6.54182
      vertex 33.3573 21.1692 6.25738
      vertex 32.9598 20.9169 8.72573
    endloop
  endfacet
  facet normal 0.845511 0.500033 0.187293
    outer loop
      vertex 33.3573 21.1692 6.25738
      vertex 34.4293 19.25 6.54182
      vertex 34.4923 19.25 6.25738
    endloop
  endfacet
  facet normal -0.958401 0.27844 -0.0627591
    outer loop
      vertex -38.5714 9.90345 -3.76433
      vertex -38.472 10.6433 -2
      vertex -37.8734 12.3058 -3.76433
    endloop
  endfacet
  facet normal -0.9584 0.278444 -0.0627608
    outer loop
      vertex -38.472 10.6433 -2
      vertex -38.5714 9.90345 -3.76433
      vertex -38.6789 9.93105 -2
    endloop
  endfacet
  facet normal -0.883987 0.450413 -0.125281
    outer loop
      vertex -34.9771 18.9612 -4
      vertex -36.0325 16.9556 -3.76433
      vertex -34.8967 19.1846 -3.76433
    endloop
  endfacet
  facet normal -0.883987 0.450414 -0.125273
    outer loop
      vertex -36.0325 16.9556 -3.76433
      vertex -34.9771 18.9612 -4
      vertex -36.0055 16.9429 -4
    endloop
  endfacet
  facet normal -0.473326 0.800351 0.367967
    outer loop
      vertex -18.1309 32.98 13.5495
      vertex -20.166 31.7765 13.5495
      vertex -17.6853 32.1694 15.8859
    endloop
  endfacet
  facet normal -0.1321 0.834051 0.535639
    outer loop
      vertex -4.31518 34.1582 20.3617
      vertex -6.19918 32.4972 22.4833
      vertex -4.14643 32.8223 22.4833
    endloop
  endfacet
  facet normal -0.786638 0.534598 0.308879
    outer loop
      vertex -31.0758 22.5779 11.1596
      vertex -32.4321 20.582 11.1596
      vertex -30.4475 22.1214 13.5495
    endloop
  endfacet
  facet normal -0.82545 0.560975 0.0627601
    outer loop
      vertex -32.3447 23.4998 1.25643
      vertex -33.7565 21.4225 1.25643
      vertex -32.2171 23.4071 3.76433
    endloop
  endfacet
  facet normal -0.765354 0.593669 0.248575
    outer loop
      vertex -29.5968 24.4846 11.1596
      vertex -31.5813 22.9452 8.72573
      vertex -31.0758 22.5779 11.1596
    endloop
  endfacet
  facet normal -0.82545 0.560976 -0.0627595
    outer loop
      vertex -33.6232 21.338 -3.76433
      vertex -33.7565 21.4225 -1.25643
      vertex -32.2171 23.4071 -3.76433
    endloop
  endfacet
  facet normal -0.482187 -0.546934 0.684368
    outer loop
      vertex -18.0291 -21.7934 28.2843
      vertex -20.5395 -21.8723 26.4525
      vertex -19.1256 -23.1188 26.4525
    endloop
  endfacet
  facet normal -0.396365 -0.915945 -0.062759
    outer loop
      vertex -14.7177 -37.1727 -1.25643
      vertex -16.9556 -36.0325 -3.76433
      vertex -14.6596 -37.026 -3.76433
    endloop
  endfacet
  facet normal 0.509652 -0.578087 0.637237
    outer loop
      vertex 20.5395 -21.8723 26.4525
      vertex 20.1465 -24.353 24.5163
      vertex 21.6359 -23.0399 24.5163
    endloop
  endfacet
  facet normal -0.939026 -0.338069 -0.0627589
    outer loop
      vertex -37.3805 -14.0026 -2
      vertex -37.979 -12.3401 -2
      vertex -37.8734 -12.3058 -3.76433
    endloop
  endfacet
  facet normal -0.47465 -0.698426 0.535638
    outer loop
      vertex -19.4458 -26.7649 22.4833
      vertex -20.2373 -27.8542 20.3617
      vertex -17.7269 -27.9331 22.4833
    endloop
  endfacet
  facet normal -0.640555 -0.726567 0.248575
    outer loop
      vertex -26.2947 -28.001 11.1596
      vertex -26.7224 -28.4565 8.72573
      vertex -24.4846 -29.5968 11.1596
    endloop
  endfacet
  facet normal -0.233513 -0.539616 0.80888
    outer loop
      vertex -9.57294 -20.3435 33.0832
      vertex -10.4385 -22.183 31.6062
      vertex -9.02505 -22.7947 31.6062
    endloop
  endfacet
  facet normal 0.207476 -0.928196 0.308879
    outer loop
      vertex 9.3595 -36.4529 13.5495
      vertex 7.05214 -36.9686 13.5495
      vertex 9.55261 -37.205 11.1596
    endloop
  endfacet
  facet normal -0.197399 -0.883115 0.425607
    outer loop
      vertex -8.86337 -34.5206 18.1596
      vertex -9.12945 -35.5569 15.8859
      vertex -6.8788 -36.0599 15.8859
    endloop
  endfacet
  facet normal -0.508038 -0.859045 0.0627595
    outer loop
      vertex -21.338 -33.6232 3.76433
      vertex -21.4225 -33.7565 1.25643
      vertex -19.1846 -34.8967 3.76433
    endloop
  endfacet
  facet normal -0.0875053 -0.925712 0.367968
    outer loop
      vertex -2.30505 -36.6377 15.8859
      vertex -4.71694 -37.3385 13.5495
      vertex -2.36314 -37.561 13.5495
    endloop
  endfacet
  facet normal -0.569905 -0.734716 0.367967
    outer loop
      vertex -21.5777 -29.6992 15.8859
      vertex -23.4 -28.2857 15.8859
      vertex -22.1214 -30.4475 13.5495
    endloop
  endfacet
  facet normal -0.557656 -0.820565 0.125272
    outer loop
      vertex -23.2219 -31.9623 6.25738
      vertex -23.4071 -32.2171 3.76433
      vertex -21.338 -33.6232 3.76433
    endloop
  endfacet
  facet normal -0.332744 -0.924231 0.187293
    outer loop
      vertex -12.063 -37.1261 8.72573
      vertex -14.5437 -36.7332 6.25738
      vertex -12.2085 -37.5739 6.25738
    endloop
  endfacet
  facet normal 0.889251 0.453094 -0.0627592
    outer loop
      vertex 35.3307 18.5772 -2
      vertex 34.8967 19.1846 -3.76433
      vertex 34.994 19.2381 -2
    endloop
  endfacet
  facet normal 0.88925 0.453095 -0.062759
    outer loop
      vertex 34.8967 19.1846 -3.76433
      vertex 35.3307 18.5772 -2
      vertex 36.0325 16.9556 -3.76433
    endloop
  endfacet
  facet normal 0.889243 0.45311 -0.0627545
    outer loop
      vertex 35.0396 19.25 -1.268
      vertex 35.0156 19.25 -1.60742
      vertex 35.035 19.2606 -1.25643
    endloop
  endfacet
  facet normal 0.217713 -0.973993 -0.0627605
    outer loop
      vertex 7.49155 -39.2721 -1.25643
      vertex 7.46199 -39.1171 -3.76433
      vertex 9.94269 -38.7242 -1.25643
    endloop
  endfacet
  facet normal 0.713432 -0.628974 0.308879
    outer loop
      vertex 28.9984 -23.9896 13.5495
      vertex 27.4349 -25.7631 13.5495
      vertex 29.5968 -24.4846 11.1596
    endloop
  endfacet
  facet normal 0.155198 -0.979909 -0.125268
    outer loop
      vertex 7.46199 -39.1171 -3.76433
      vertex 7.22468 -39.1246 -4
      vertex 7.45641 -39.0879 -4
    endloop
  endfacet
  facet normal 0.328105 -0.911349 0.248575
    outer loop
      vertex 14.1403 -35.7143 11.1596
      vertex 12.063 -37.1261 8.72573
      vertex 14.3704 -36.2954 8.72573
    endloop
  endfacet
  facet normal -0.093367 -0.987719 0.125271
    outer loop
      vertex -4.95161 -39.196 6.25738
      vertex -4.99108 -39.5085 3.76433
      vertex -2.50047 -39.7439 3.76433
    endloop
  endfacet
  facet normal 0.987719 -0.0933673 -0.125271
    outer loop
      vertex 39.7439 -2.50047 -3.76433
      vertex 39.6921 -2.73218 -4
      vertex 39.7142 -2.4986 -4
    endloop
  endfacet
  facet normal 0.765354 -0.593669 0.248575
    outer loop
      vertex 31.0758 -22.5779 11.1596
      vertex 29.5968 -24.4846 11.1596
      vertex 31.5813 -22.9452 8.72573
    endloop
  endfacet
  facet normal 0.608078 -0.78393 -0.125278
    outer loop
      vertex 23.5749 -32.0492 -4
      vertex 25.3838 -30.6837 -3.76433
      vertex 23.4071 -32.2171 -3.76433
    endloop
  endfacet
  facet normal 0.608078 -0.78393 -0.125275
    outer loop
      vertex 25.3838 -30.6837 -3.76433
      vertex 23.5749 -32.0492 -4
      vertex 25.3648 -30.6608 -4
    endloop
  endfacet
  facet normal 0.505034 -0.853959 -0.125279
    outer loop
      vertex 21.338 -33.6232 -3.76433
      vertex 21.1201 -33.7175 -4
      vertex 21.322 -33.5981 -4
    endloop
  endfacet
  facet normal 0.252461 -0.868977 0.425608
    outer loop
      vertex 11.0134 -33.8959 18.1596
      vertex 9.12945 -35.5569 15.8859
      vertex 11.3441 -34.9135 15.8859
    endloop
  endfacet
  facet normal 0.153667 -0.97021 0.187293
    outer loop
      vertex 7.31474 -38.3452 8.72573
      vertex 4.95161 -39.196 6.25738
      vertex 7.40297 -38.8077 6.25738
    endloop
  endfacet
  facet normal 0.546934 -0.482187 0.684368
    outer loop
      vertex 23.0091 -19.25 26.4525
      vertex 21.8318 -19.25 27.3934
      vertex 21.8723 -20.5395 26.4525
    endloop
  endfacet
  facet normal 0.114062 -0.720161 0.684367
    outer loop
      vertex 5.29994 -27.7833 28.2843
      vertex 3.54496 -28.0612 28.2843
      vertex 5.62227 -29.473 26.4525
    endloop
  endfacet
  facet normal 0.515578 -0.515578 0.684368
    outer loop
      vertex 20.6183 -19.3619 28.2843
      vertex 20.5395 -21.8723 26.4525
      vertex 21.8723 -20.5395 26.4525
    endloop
  endfacet
  facet normal 0.515578 -0.515578 0.684368
    outer loop
      vertex 20.5395 -21.8723 26.4525
      vertex 20.6183 -19.3619 28.2843
      vertex 19.3619 -20.6183 28.2843
    endloop
  endfacet
  facet normal 0.452817 -0.513621 0.7288
    outer loop
      vertex 18.108 -19.283 30.0044
      vertex 18.0291 -21.7934 28.2843
      vertex 19.3619 -20.6183 28.2843
    endloop
  endfacet
  facet normal -0.968228 -0.216432 -0.125268
    outer loop
      vertex -39.0367 -7.68538 -4
      vertex -39.1171 -7.46199 -3.76433
      vertex -39.0879 -7.45641 -4
    endloop
  endfacet
  facet normal -0.939026 -0.33807 -0.0627601
    outer loop
      vertex -37.026 -14.6596 -3.76433
      vertex -37.3805 -14.0026 -2
      vertex -37.8734 -12.3058 -3.76433
    endloop
  endfacet
  facet normal -0.939025 -0.338072 -0.0627593
    outer loop
      vertex -37.3805 -14.0026 -2
      vertex -37.026 -14.6596 -3.76433
      vertex -37.1292 -14.7005 -2
    endloop
  endfacet
  facet normal 0.0875047 0.925712 0.367968
    outer loop
      vertex 4.71694 37.3385 13.5495
      vertex 2.30505 36.6377 15.8859
      vertex 4.60101 36.4207 15.8859
    endloop
  endfacet
  facet normal -0.156125 0.985741 -0.0627605
    outer loop
      vertex -7.46199 39.1171 -3.76433
      vertex -7.49155 39.2721 -1.25643
      vertex -5.01085 39.665 -1.25643
    endloop
  endfacet
  facet normal 0.151525 0.956687 0.248575
    outer loop
      vertex 7.31474 38.3452 8.72573
      vertex 4.81427 38.1089 11.1596
      vertex 7.19764 37.7314 11.1596
    endloop
  endfacet
  facet normal 0.286045 0.794525 0.535638
    outer loop
      vertex 10.6394 32.7446 20.3617
      vertex 10.2233 31.464 22.4833
      vertex 12.6744 32.0119 20.3617
    endloop
  endfacet
  facet normal 0.360375 0.464591 0.808879
    outer loop
      vertex 14.4103 19.8341 31.6062
      vertex 13.9859 19.25 32.1307
      vertex 14.392 19.25 31.9499
    endloop
  endfacet
  facet normal -0.546936 0.482181 0.684371
    outer loop
      vertex -20.6183 19.3619 28.2843
      vertex -21.8318 19.25 27.3934
      vertex -20.717 19.25 28.2843
    endloop
  endfacet
  facet normal -0.546934 0.482187 0.684368
    outer loop
      vertex -21.8318 19.25 27.3934
      vertex -20.6183 19.3619 28.2843
      vertex -21.8723 20.5395 26.4525
    endloop
  endfacet
  facet normal 0.207476 0.928196 0.308879
    outer loop
      vertex 9.55261 37.205 11.1596
      vertex 7.05214 36.9686 13.5495
      vertex 9.3595 36.4529 13.5495
    endloop
  endfacet
  facet normal 0.560975 0.82545 0.0627601
    outer loop
      vertex 23.4998 32.3447 1.25643
      vertex 21.4225 33.7565 1.25643
      vertex 23.4071 32.2171 3.76433
    endloop
  endfacet
  facet normal 0.217713 0.973993 -0.0627605
    outer loop
      vertex 9.94269 38.7242 -1.25643
      vertex 7.46199 39.1171 -3.76433
      vertex 7.49155 39.2721 -1.25643
    endloop
  endfacet
  facet normal 0.633429 0.558444 0.535638
    outer loop
      vertex 25.0982 23.5687 20.3617
      vertex 24.1166 22.647 22.4833
      vertex 26.5285 21.9463 20.3617
    endloop
  endfacet
  facet normal 0.833726 0.493064 0.248575
    outer loop
      vertex 33.7642 19.25 9.33413
      vertex 32.9598 20.9169 8.72573
      vertex 32.4321 20.582 11.1596
    endloop
  endfacet
  facet normal 0.833725 0.493064 0.248577
    outer loop
      vertex 32.9598 20.9169 8.72573
      vertex 33.7642 19.25 9.33413
      vertex 33.9455 19.25 8.72573
    endloop
  endfacet
  facet normal 0.713432 0.628974 0.308879
    outer loop
      vertex 29.5968 24.4846 11.1596
      vertex 27.4349 25.7631 13.5495
      vertex 28.9984 23.9896 13.5495
    endloop
  endfacet
  facet normal 0.715017 0.554625 0.425608
    outer loop
      vertex 29.6992 21.5777 15.8859
      vertex 28.2857 23.4 15.8859
      vertex 28.8336 20.9488 18.1596
    endloop
  endfacet
  facet normal 0.517568 0.667244 0.535638
    outer loop
      vertex 21.9463 26.5285 20.3617
      vertex 20.2373 27.8542 20.3617
      vertex 21.088 25.4911 22.4833
    endloop
  endfacet
  facet normal 0.608079 0.783931 0.125272
    outer loop
      vertex 23.4071 32.2171 3.76433
      vertex 23.2219 31.9623 6.25738
      vertex 25.183 30.4411 6.25738
    endloop
  endfacet
  facet normal 0.384682 0.888949 0.248575
    outer loop
      vertex 14.3704 36.2954 8.72573
      vertex 14.1403 35.7143 11.1596
      vertex 16.3549 34.756 11.1596
    endloop
  endfacet
  facet normal 0.1321 0.834051 0.535639
    outer loop
      vertex 4.31518 34.1582 20.3617
      vertex 4.14643 32.8223 22.4833
      vertex 6.19918 32.4972 22.4833
    endloop
  endfacet
  facet normal 0.411893 0.696474 0.587595
    outer loop
      vertex 15.938 28.991 22.4833
      vertex 15.2264 27.6967 24.5163
      vertex 16.9354 26.686 24.5163
    endloop
  endfacet
  facet normal 0.105135 0.470332 0.876205
    outer loop
      vertex 3.81539 20.001 34.4297
      vertex 3.67213 19.25 34.85
      vertex 4.03358 19.25 34.8066
    endloop
  endfacet
  facet normal 0.537156 0.692498 0.481571
    outer loop
      vertex 22.718 27.4613 18.1596
      vertex 20.9488 28.8336 18.1596
      vertex 21.9463 26.5285 20.3617
   